<?xml version="1.0" encoding="utf-8"?>
<!-- Generator: Adobe Illustrator 23.0.5, SVG Export Plug-In . SVG Version: 6.00 Build 0)  -->
<svg version="1.1" id="Layer_1" xmlns="http://www.w3.org/2000/svg" xmlns:xlink="http://www.w3.org/1999/xlink" x="0px" y="0px"
	 viewBox="0 0 500 500" style="enable-background:new 0 0 500 500;" xml:space="preserve">
<style type="text/css">
	.st0{fill:#40A651;}
	.st1{fill:#FFFFFF;}
</style>
<g>
	<path class="st1" d="M112.2,273.5h178.87c44.04,0,79.75,35.71,79.75,79.75l0,0c0,44.04-35.71,79.75-79.75,79.75H112.2
		c-44.04,0-79.75-35.71-79.75-79.75l0,0C32.45,309.2,68.15,273.5,112.2,273.5z"/>
	<circle class="st1" cx="201.63" cy="149.79" r="82.95"/>
	<path class="st1" d="M456.6,181.61h-55.22v-55.2c-0.22-6.04-5.29-10.77-11.33-10.55c-5.74,0.21-10.34,4.81-10.55,10.55v55.22
		h-55.22c-6.05,0-10.95,4.9-10.95,10.95s4.9,10.95,10.95,10.95h55.22v55.22c0.22,6.04,5.29,10.77,11.33,10.55
		c5.74-0.21,10.34-4.81,10.55-10.55V203.5h55.22c6.05,0,10.95-4.9,10.95-10.95S462.65,181.61,456.6,181.61L456.6,181.61z"/>
</g>
</svg>
