<?xml version="1.0" encoding="utf-8"?>
<!-- Generator: Adobe Illustrator 23.0.5, SVG Export Plug-In . SVG Version: 6.00 Build 0)  -->
<svg version="1.1" id="Layer_1" xmlns="http://www.w3.org/2000/svg" xmlns:xlink="http://www.w3.org/1999/xlink" x="0px" y="0px"
	 viewBox="0 0 500 500" style="enable-background:new 0 0 500 500;" xml:space="preserve">
<style type="text/css">
	.st0{fill:#40A651;}
	.st1{fill:#FFFFFF;}
</style>
<g id="_x38_64_x2C__Business_x2C__Management_x2C__Tick_x2C__Check">
	<g>
		<path class="st1" d="M332.31,187.84c8.75,8.74,8.75,22.91,0,31.65L215.18,336.64l-6.33-6.34l-25.33-25.32l-15.82-15.83
			c-4.37-4.37-6.56-10.1-6.56-15.82c0-5.73,2.19-11.46,6.56-15.83c8.74-8.75,22.91-8.75,31.65,0l15.83,15.83l85.48-85.48
			c4.37-4.37,10.1-6.56,15.82-6.56C322.21,181.27,327.94,183.47,332.31,187.84L332.31,187.84z"/>
		<path class="st1" d="M429.09,142.55c4.94,0,8.95,4.01,8.95,8.95s-4.01,8.95-8.95,8.95s-8.95-4.01-8.95-8.95
			S424.15,142.55,429.09,142.55z"/>
		<path class="st1" d="M384.32,223.14c4.94,0,8.95,4.01,8.95,8.95s-4.01,8.95-8.95,8.95s-8.95-4.01-8.95-8.95
			S379.38,223.14,384.32,223.14z"/>
		<path class="st1" d="M375.36,429.09c4.94,0,8.95,4.01,8.95,8.95c0,4.94-4.01,8.95-8.95,8.95s-8.95-4.01-8.95-8.95
			C366.41,433.1,370.42,429.09,375.36,429.09z"/>
		<path class="st1" d="M88.82,106.73c4.94,0,8.95,4.01,8.95,8.95c0,4.94-4.01,8.95-8.95,8.95c-4.94,0-8.95-4.01-8.95-8.95
			C79.86,110.74,83.88,106.73,88.82,106.73z"/>
		<path class="st1" d="M53,160.45c4.94,0,8.95,4.01,8.95,8.95s-4.01,8.95-8.95,8.95s-8.95-4.01-8.95-8.95S48.06,160.45,53,160.45z"
			/>
		<path class="st1" d="M250,447c-103.69,0-188.05-84.36-188.05-188.05S146.31,70.91,250,70.91s188.05,84.36,188.05,188.05
			S353.69,447,250,447z M250,88.82c-93.81,0-170.14,76.32-170.14,170.14S156.19,429.09,250,429.09s170.14-76.32,170.14-170.14
			S343.81,88.82,250,88.82z"/>
		<path class="st1" d="M250,357.45c-4.94,0-8.95-4.01-8.95-8.95s4.01-8.95,8.95-8.95c44.44,0,80.59-36.15,80.59-80.59
			c0-4.94,4.01-8.95,8.95-8.95s8.95,4.01,8.95,8.95C348.5,313.27,304.31,357.45,250,357.45z"/>
		<path class="st1" d="M250,402.23c-79,0-143.27-64.27-143.27-143.27c0-79,64.27-143.27,143.27-143.27c4.94,0,8.95,4.01,8.95,8.95
			s-4.01,8.95-8.95,8.95c-69.13,0-125.36,56.24-125.36,125.36S180.87,384.32,250,384.32s125.36-56.24,125.36-125.36
			c0-4.94,4.01-8.95,8.95-8.95s8.95,4.01,8.95,8.95C393.27,337.96,329,402.23,250,402.23z"/>
		<path class="st1" d="M79.86,447C65.05,447,53,434.95,53,420.14c0-14.81,12.05-26.86,26.86-26.86s26.86,12.05,26.86,26.86
			C106.73,434.95,94.68,447,79.86,447z M79.86,411.18c-4.94,0-8.95,4.02-8.95,8.95c0,4.94,4.02,8.95,8.95,8.95
			c4.94,0,8.95-4.02,8.95-8.95C88.82,415.2,84.8,411.18,79.86,411.18z"/>
		<path class="st1" d="M429.09,429.09c-14.81,0-26.86-12.05-26.86-26.86c0-14.81,12.05-26.86,26.86-26.86s26.86,12.05,26.86,26.86
			C455.95,417.04,443.9,429.09,429.09,429.09z M429.09,393.27c-4.94,0-8.95,4.02-8.95,8.95c0,4.94,4.02,8.95,8.95,8.95
			c4.94,0,8.95-4.02,8.95-8.95C438.05,397.29,434.03,393.27,429.09,393.27z"/>
		<path class="st1" d="M415.66,115.68c-17.28,0-31.34-14.06-31.34-31.34S398.38,53,415.66,53C432.94,53,447,67.06,447,84.34
			S432.94,115.68,415.66,115.68z M415.66,70.91c-7.41,0-13.43,6.03-13.43,13.43c0,7.41,6.03,13.43,13.43,13.43
			s13.43-6.03,13.43-13.43C429.09,76.93,423.07,70.91,415.66,70.91z"/>
	</g>
</g>
</svg>
