<?xml version="1.0" encoding="utf-8"?>
<!-- Generator: Adobe Illustrator 23.0.5, SVG Export Plug-In . SVG Version: 6.00 Build 0)  -->
<svg version="1.1" id="Layer_1" xmlns="http://www.w3.org/2000/svg" xmlns:xlink="http://www.w3.org/1999/xlink" x="0px" y="0px"
	 viewBox="0 0 500 500" style="enable-background:new 0 0 500 500;" xml:space="preserve">
<style type="text/css">
	.st0{fill:#40A651;}
</style>
<g>
	<path class="st0" d="M269.54,261.42c1.36,2,1.87,4.39,1.42,6.77c-1.4,7.53-8.08,21.81-23.31,21.81c-8.28,0-15.12-4.19-21.77-8.26
		c-5.21-3.18-10.13-6.17-14.34-6.17c-9.04,0-11.49,1.43-25.09,9.42l-6.48,3.79c-1.34,0.8-2.9,1.22-4.54,1.22
		c-2.69,0-5.19-1.18-6.92-3.23c-2.83-3.4-2.81-8.28,0.02-11.64c9.82-11.62,26.76-41.67,26.76-51.93c0-1.43-0.31-3.14-0.96-5.41
		h-18.9c-4.97,0-9.02-4.07-9.02-9.04s4.05-9.04,9.02-9.04h11.78c-3.25-7.9-6.37-17.01-6.37-27.07c0-37.31,24.55-45.14,45.16-45.14
		c35.7,0,45.14,24.8,45.14,37.91c0,4.99-4.05,9.04-9.02,9.04c-4.96,0-9.01-4.03-9.04-8.99c-0.04-2.02-1.13-19.9-27.07-19.9
		c-23.8,0-27.07,13.02-27.07,27.07c0,8.64,3.69,17.28,7.26,25.64l0.62,1.43h26.42c4.97,0,9.02,4.07,9.02,9.04s-4.05,9.04-9.02,9.04
		h-20.39c0.36,2,0.53,3.72,0.53,5.41c0,10.22-7.06,25.24-12.46,35.21c3.16-0.64,6.54-0.93,10.64-0.93c9.3,0,16.98,4.7,23.77,8.86
		c4.78,2.91,9.19,5.59,12.35,5.59c3.98,0,5.52-6.83,5.57-7.12c0.44-2.32,1.78-4.39,3.79-5.76c2-1.36,4.39-1.87,6.74-1.42
		C266.12,258.1,268.17,259.44,269.54,261.42z"/>
</g>
<g id="XMLID_495_">
	<path class="st0" d="M356.38,461c-54.42,0-98.7-44.28-98.7-98.7s44.28-98.7,98.7-98.7c54.43,0,98.7,44.28,98.7,98.7
		S410.81,461,356.38,461z M356.38,287.27c-41.37,0-75.03,33.66-75.03,75.03s33.66,75.03,75.03,75.03
		c41.37,0,75.03-33.66,75.03-75.03S397.75,287.27,356.38,287.27z"/>
</g>
<g id="XMLID_51_">
	<path class="st0" d="M219.23,389.62c-91.7,0-166.31-74.61-166.31-166.31C52.92,131.61,127.52,57,219.23,57
		s166.31,74.61,166.31,166.31c0,19.41-3.32,38.43-9.86,56.53l-22.26-8.04c5.61-15.51,8.45-31.83,8.45-48.48
		c0-78.65-63.99-142.64-142.64-142.64S76.59,144.66,76.59,223.31c0,78.65,63.99,142.64,142.64,142.64c15.91,0,31.54-2.6,46.44-7.73
		l7.7,22.38C255.98,386.59,237.77,389.62,219.23,389.62z"/>
</g>
<g id="XMLID_317_">
	<path class="st0" d="M339.2,399.45l-25.79-22.93c-4.89-4.34-5.32-11.83-0.98-16.71l0,0c4.34-4.89,11.83-5.32,16.71-0.98
		l16.24,14.44l38.21-38.21c4.62-4.62,12.12-4.62,16.74,0v0c4.62,4.62,4.62,12.12,0,16.74l-47.25,47.25
		C349.3,402.84,343.21,403.02,339.2,399.45z"/>
</g>
</svg>
