<?xml version="1.0" encoding="utf-8"?>
<!-- Generator: Adobe Illustrator 23.0.5, SVG Export Plug-In . SVG Version: 6.00 Build 0)  -->
<svg version="1.1" id="Layer_1" xmlns="http://www.w3.org/2000/svg" xmlns:xlink="http://www.w3.org/1999/xlink" x="0px" y="0px"
	 viewBox="0 0 500 500" style="enable-background:new 0 0 500 500;" xml:space="preserve">
<style type="text/css">
	.st0{fill:#40A651;}
</style>
<path class="st0" d="M424.12,244.75c-0.01,0.53-0.05,1.07-0.09,1.79c-0.7,0.03-1.34,0.09-1.97,0.09c-9.35,0-18.69-0.03-28.04,0.03
	c-1.45,0.01-1.91-0.37-1.96-1.88c-0.28-8.24-0.9-16.45-2.4-24.6c-2.2-11.96-5.93-23.37-10.65-34.55c-0.9-2.14-2.06-4.05-3.08-6.06
	c-7.62-14.92-17.52-28.15-29.62-39.73c-8.56-8.18-17.99-15.23-28.26-21.18c-7.93-4.61-16.14-8.59-24.82-11.42
	c-7.11-2.32-14.43-4.05-21.73-5.73c-9.49-2.18-19.17-2.9-28.88-2.58c-7.44,0.24-14.92,0.92-22.3,1.96
	c-13.26,1.86-25.89,6.02-38.01,11.63c-8.7,4.02-16.91,8.89-24.67,14.55c-10.71,7.8-20.23,16.83-28.51,27.16
	c-7.62,9.48-13.98,19.73-19.07,30.8c-3.31,7.21-6.09,14.61-8.18,22.24c-2.32,8.47-4.19,17.06-4.58,25.85
	c-0.34,7.58-0.62,15.19-0.38,22.77c0.25,8.05,1.65,16,3.45,23.89c2.82,12.51,7.28,24.39,13.24,35.69
	c7.6,14.39,17.28,27.26,29.22,38.33c4.94,4.58,10.24,8.8,15.62,12.87c3.75,2.85,7.9,5.2,11.91,7.7c6.88,4.3,14.26,7.63,21.82,10.5
	c7.93,2.99,16.07,5.24,24.4,6.84c11.7,2.24,23.49,3.14,35.36,2.4c6.65-0.42,13.29-1.41,19.91-2.43c11.23-1.73,21.95-5.37,32.31-9.94
	c7.67-3.37,15.01-7.39,21.95-12.12c0.15-0.09,0.33-0.14,0.81-0.36c5.95,8.83,11.88,17.61,17.96,26.63
	c-2.58,1.64-4.92,3.36-7.47,4.72c-7.2,3.85-14.31,7.98-21.79,11.2c-7.63,3.27-15.6,5.83-23.56,8.24
	c-8.22,2.51-16.65,4.26-25.25,4.96c-8.22,0.66-16.46,1.31-24.69,1.44c-9.27,0.15-18.49-0.88-27.67-2.38
	c-10.45-1.7-20.65-4.33-30.58-7.86c-13.29-4.75-25.94-10.94-37.72-18.77c-2.94-1.95-5.61-4.31-8.43-6.44
	c-3.64-2.72-7.47-5.19-10.93-8.12c-8-6.77-15.24-14.31-21.87-22.42c-5.37-6.54-10.2-13.46-14.62-20.67
	c-0.01-0.03-0.03-0.05-0.05-0.08c-0.1-0.15-0.19-0.32-0.29-0.47c-0.48-0.79-0.97-1.58-1.44-2.38c-0.18-0.31-0.34-0.6-0.52-0.89
	c-0.59-1.04-1.16-2.11-1.72-3.17c-0.09-0.18-0.19-0.36-0.28-0.52c-0.1-0.18-0.19-0.37-0.29-0.55c-0.57-1.07-1.13-2.1-1.72-3.18
	c0.03-0.03,0.05-0.04,0.08-0.06c-0.34-0.71-0.69-1.41-1.01-2.1c-0.32-0.23-0.53-0.61-0.71-1.04c-0.6-1.5-1.22-3-1.84-4.52
	c-0.01-0.05-0.04-0.09-0.05-0.13c-0.27-0.65-0.55-1.31-0.81-1.96c-0.76-1.83-1.53-3.65-2.29-5.5c-0.03-0.09-0.06-0.18-0.1-0.27
	c-0.01-0.03-0.01-0.04-0.01-0.04c-1.59-3.89-3.1-7.82-4.39-11.82c-2.48-7.75-4.3-15.76-5.69-23.79c-1.36-7.99-2.16-16.12-2.6-24.22
	c-0.52-9.91,0.08-19.82,1.31-29.71c1.62-12.85,4.61-25.36,8.94-37.51c5.2-14.61,12.23-28.35,21.04-41.12
	c8.73-12.63,18.84-24.02,30.43-34.07c11.04-9.57,23.03-17.71,36.03-24.36c8.02-4.1,16.26-7.63,24.78-10.46
	c9.06-3,18.31-5.27,27.73-6.84c11.14-1.86,22.34-2.51,33.6-2.33c8.37,0.14,16.69,1.01,24.97,2.29c11.6,1.82,22.86,4.83,33.83,8.89
	c9.85,3.66,19.3,8.21,28.37,13.55c14.13,8.35,26.84,18.45,38.26,30.22c9.17,9.45,17.21,19.78,24.05,31.02
	c5.98,9.83,11.08,20.13,15.1,30.94c3.19,8.6,5.81,17.4,7.61,26.4C422.88,221.48,424.32,233.04,424.12,244.75z"/>
<path class="st0" d="M467.97,349.4c-20.02,34.69-39.85,69.02-59.81,103.6c-19.96-34.6-39.77-68.92-59.79-103.6h2.4
	c10.25,0,20.5-0.05,30.74,0.04c1.73,0.01,2.09-0.56,2.07-2.14c-0.06-21.45-0.06-42.89-0.08-64.34c0-1.91,0.09-3.83,0.15-5.74
	c0.01-0.34,0-0.89,0.2-1.01c1.09-0.62,2.24-1.62,3.37-1.63c14.8-0.09,29.59-0.03,44.39,0c0.28,0,0.57,0.08,1.03,0.14v2.15
	c0,23.42,0.03,46.84-0.05,70.27c0,1.86,0.51,2.3,2.32,2.29c10.24-0.09,20.48-0.04,30.72-0.04H467.97z"/>
<g>
	<path class="st0" d="M295.22,295.1c1.35,1.98,1.86,4.37,1.41,6.73c-1.39,7.49-8.03,21.67-23.17,21.67
		c-8.23,0-15.03-4.17-21.64-8.21c-5.18-3.16-10.07-6.14-14.26-6.14c-8.99,0-11.42,1.43-24.94,9.37l-6.44,3.77
		c-1.34,0.79-2.89,1.21-4.51,1.21c-2.67,0-5.16-1.17-6.88-3.21c-2.81-3.37-2.8-8.23,0.02-11.57c9.76-11.55,26.6-41.41,26.6-51.61
		c0-1.43-0.31-3.12-0.96-5.38h-18.78c-4.94,0-8.97-4.04-8.97-8.99s4.02-8.99,8.97-8.99h11.71c-3.23-7.85-6.33-16.91-6.33-26.9
		c0-37.08,24.4-44.86,44.88-44.86c35.48,0,44.86,24.65,44.86,37.68c0,4.96-4.02,8.99-8.97,8.99c-4.93,0-8.95-4.01-8.99-8.93
		c-0.04-2-1.12-19.78-26.9-19.78c-23.66,0-26.9,12.94-26.9,26.9c0,8.59,3.66,17.18,7.22,25.48l0.61,1.43h26.26
		c4.94,0,8.97,4.04,8.97,8.99s-4.02,8.99-8.97,8.99h-20.26c0.36,1.98,0.52,3.7,0.52,5.38c0,10.16-7.02,25.08-12.38,34.99
		c3.14-0.63,6.5-0.92,10.57-0.92c9.24,0,16.87,4.67,23.62,8.81c4.75,2.89,9.13,5.56,12.27,5.56c3.95,0,5.49-6.78,5.54-7.07
		c0.43-2.31,1.77-4.37,3.77-5.72c1.98-1.35,4.37-1.86,6.69-1.41C291.83,291.8,293.87,293.13,295.22,295.1z"/>
</g>
</svg>
