<?xml version="1.0" encoding="utf-8"?>
<!-- Generator: Adobe Illustrator 23.0.5, SVG Export Plug-In . SVG Version: 6.00 Build 0)  -->
<svg version="1.1" id="Layer_1" xmlns="http://www.w3.org/2000/svg" xmlns:xlink="http://www.w3.org/1999/xlink" x="0px" y="0px"
	 viewBox="0 0 500 500" style="enable-background:new 0 0 500 500;" xml:space="preserve">
<style type="text/css">
	.st0{fill:#40A651;}
</style>
<path class="st0" d="M188.53,373.83l-47.8,47.8c-2.53,2.64-2.44,6.82,0.2,9.34c2.56,2.45,6.59,2.45,9.14,0l47.8-47.8
	c2.53-2.63,2.45-6.82-0.19-9.34C195.13,371.37,191.09,371.37,188.53,373.83z"/>
<path class="st0" d="M116.82,302.12l-47.8,47.8c-2.53,2.64-2.44,6.82,0.2,9.34c2.56,2.45,6.59,2.45,9.14,0l47.8-47.8
	c2.53-2.63,2.45-6.81-0.18-9.34C123.43,299.66,119.38,299.66,116.82,302.12z"/>
<path class="st0" d="M162.02,347.32c2.53-2.63,2.45-6.81-0.18-9.34c-2.56-2.46-6.6-2.46-9.16,0l-71.71,71.71
	c-2.52,2.64-2.43,6.82,0.2,9.34c2.56,2.45,6.59,2.45,9.14,0L162.02,347.32z"/>
<path class="st0" d="M315.9,94.89c-49.27,0-89.2,39.95-89.2,89.21s39.95,89.2,89.21,89.2s89.2-39.95,89.2-89.21
	c0-2.58-0.11-5.16-0.34-7.73C400.65,130.33,362.12,95.01,315.9,94.89z M315.9,260.09c-41.95-0.05-75.94-34.04-75.99-75.99
	c4.18-100.81,147.81-100.78,151.98,0C391.84,226.04,357.85,260.04,315.9,260.09z"/>
<path class="st0" d="M390.63,67.67l-44.8,18.5c32.59,9.92,58.11,35.41,68.06,67.99l18.44-44.8
	C443.87,84.25,415.74,56.13,390.63,67.67z"/>
<path class="st0" d="M225.83,135.46L84.62,193.68c-16.32,6.88-23.98,25.7-17.09,42.02c2.41,5.71,6.42,10.6,11.54,14.08l99.58,66.41
	c2.03,1.37,3.78,3.12,5.15,5.15l66.41,99.58c9.94,14.66,29.88,18.49,44.54,8.55c5.14-3.48,9.15-8.38,11.56-14.1l58.15-141.21
	C275.59,322.11,177.88,224.49,225.83,135.46z"/>
<g>
	<path class="st0" d="M345.72,207.76c0.75,1.1,1.03,2.42,0.78,3.73c-0.77,4.15-4.45,12.01-12.84,12.01c-4.56,0-8.33-2.31-11.99-4.55
		c-2.87-1.75-5.58-3.4-7.9-3.4c-4.98,0-6.33,0.79-13.82,5.19l-3.57,2.09c-0.74,0.44-1.6,0.67-2.5,0.67c-1.48,0-2.86-0.65-3.81-1.78
		c-1.56-1.87-1.55-4.56,0.01-6.41c5.41-6.4,14.74-22.95,14.74-28.6c0-0.79-0.17-1.73-0.53-2.98h-10.41c-2.74,0-4.97-2.24-4.97-4.98
		s2.23-4.98,4.97-4.98h6.49c-1.79-4.35-3.51-9.37-3.51-14.91c0-20.55,13.52-24.86,24.87-24.86c19.66,0,24.86,13.66,24.86,20.88
		c0,2.75-2.23,4.98-4.97,4.98c-2.73,0-4.96-2.22-4.98-4.95c-0.02-1.11-0.62-10.96-14.91-10.96c-13.11,0-14.91,7.17-14.91,14.91
		c0,4.76,2.03,9.52,4,14.12l0.34,0.79h14.55c2.74,0,4.97,2.24,4.97,4.98s-2.23,4.98-4.97,4.98h-11.23c0.2,1.1,0.29,2.05,0.29,2.98
		c0,5.63-3.89,13.9-6.86,19.39c1.74-0.35,3.6-0.51,5.86-0.51c5.12,0,9.35,2.59,13.09,4.88c2.63,1.6,5.06,3.08,6.8,3.08
		c2.19,0,3.04-3.76,3.07-3.92c0.24-1.28,0.98-2.42,2.09-3.17c1.1-0.75,2.42-1.03,3.71-0.78
		C343.84,205.93,344.97,206.67,345.72,207.76z"/>
</g>
</svg>
