<?xml version="1.0" encoding="utf-8"?>
<!-- Generator: Adobe Illustrator 23.0.5, SVG Export Plug-In . SVG Version: 6.00 Build 0)  -->
<svg version="1.1" id="Layer_1" xmlns="http://www.w3.org/2000/svg" xmlns:xlink="http://www.w3.org/1999/xlink" x="0px" y="0px"
	 viewBox="0 0 500 500" style="enable-background:new 0 0 500 500;" xml:space="preserve">
<style type="text/css">
	.st0{fill:#40A651;}
	.st1{fill:#FFFFFF;}
</style>
<g>
	<path class="st1" d="M398.29,285.21l7.67,12.97c3.35,5.66,6.72,11.37,10,17.06c8.6,14.78,12.36,29.96,11.19,45.13
		c-0.36,4.58-1.16,8.81-2.46,12.66l7.28,12.32c4.7,7.95,2.07,18.21-5.89,22.91L378,436.67c-7.95,4.7-18.21,2.07-22.91-5.89
		l-6.33-10.7c-4.27-0.2-8.49-1.09-12.55-2.64c-3.92-1.5-7.41-3.61-10.79-5.65c-1.01-0.6-2.03-1.23-3.05-1.81
		c-11.92-6.9-21.31-11.52-30.47-14.94c-5.23-1.95-10.99-3-18.16-3.36c-2.66-0.13-5.55-0.92-8.6-2.35c-4.35-2.01-7.54-5.55-8.92-9.98
		c-1.57-4.94-0.82-10.5,2.13-15.65c4.88-8.56,13.37-12.52,23.88-11.17c3.34,0.44,6.62,1.16,9.8,1.95l-46.51-78.49
		c-0.48-0.81-0.94-1.59-1.4-2.41c-0.78-1.31-1.52-2.63-2.32-3.89c-3.66-5.83-4.09-12.35-1.2-18.89c1.94-4.4,5.38-8.17,9.71-10.73
		c1.31-0.78,2.71-1.44,4.15-1.98c5.97-2.23,12.42-2.07,17.64,0.41c3.57,1.68,6.32,4.25,8.71,8.39c5.99,10.17,12,20.3,18,30.46
		l1.47,2.49c4.08-4.37,9.44-7.39,15.17-8.39c4.14-0.72,8.13-0.29,11.55,1.13c3.4-4.82,8.2-7.96,14.16-9.16
		c6.37-1.27,11.78,0.02,15.86,3.69c4.94-5.58,12.64-8.73,19.67-7.56c4.72,0.78,8.34,3.26,10.75,7.31l0.01,0.02
		C391.02,273.02,394.64,279.1,398.29,285.21L398.29,285.21z"/>
	<path class="st1" d="M235.86,300.92H122.05c-3.43,0-6.2-2.43-6.2-5.43V100.06c0-3,2.78-5.43,6.2-5.43h235.91
		c3.43,0,6.21,2.43,6.21,5.43v139.4c5.23-1.24,10.66-1.48,15.97-0.6c10.71,1.77,19.66,7.83,25.22,17.08l0.2,0.33
		c2.58,4.4,5.2,8.78,7.81,13.17V79.62c0-10.28-8.34-18.62-18.63-18.62H84.33c-10.28,0-18.62,8.34-18.62,18.62v235.91
		c0,10.28,8.34,18.62,18.62,18.62h171.22L235.86,300.92z M379.21,188.26c0-5.14,4.17-9.31,9.31-9.31c5.14,0,9.31,4.17,9.31,9.31
		v18.62c0,5.14-4.17,9.31-9.31,9.31c-5.14,0-9.31-4.17-9.31-9.31V188.26z M83.16,185.16c0-4.07,3.31-7.37,7.38-7.37
		c4.06,0,7.37,3.3,7.37,7.37V210c0,4.07-3.3,7.38-7.37,7.38c-4.07,0-7.38-3.31-7.38-7.38V185.16z M90.6,242.2
		c-4.08,0-7.4-3.3-7.4-7.37c0-4.07,3.29-7.37,7.34-7.37c4.12,0,7.43,3.31,7.43,7.37C97.97,238.89,94.67,242.2,90.6,242.2z"/>
	<g>
		<path class="st1" d="M229.03,170.07h15.94l-7.97-17.42L229.03,170.07z"/>
		<path class="st1" d="M188.75,149.42c-1.31-0.87-4.07-1.92-9.75-1.92h-6.64v16.55h8.03c5.78,0,7.87-1.3,8.61-2.07l0.01-0.01
			c1.35-1.43,2.03-3.71,2.03-6.8C191.02,150.94,189.31,149.8,188.75,149.42z"/>
		<path class="st1" d="M327.61,116.4H151.45c-6.86,0-12.41,5.56-12.41,12.41v72.16c0,6.86,5.56,12.41,12.41,12.41h176.16
			c6.86,0,12.42-5.56,12.42-12.41v-72.16C340.03,121.96,334.47,116.4,327.61,116.4z M199.88,173.56
			c-4.59,3.64-11.51,5.48-20.56,5.48h-6.97v16.7h-15.88v-63.21h22.69h0.01c9.47,0,16.31,1.86,20.9,5.69
			c4.69,3.92,7.07,9.88,7.07,17.72C207.15,163.82,204.7,169.75,199.88,173.56z M254.91,195.75l-5.7-12.96h-24.43l-5.7,12.96h-17.11
			l27.86-63.22h14.35l27.86,63.22H254.91z M298.94,171.01v24.74H282.9v-24.74l-23.66-38.49h17.88l13.79,22.96l13.79-22.96h17.89
			L298.94,171.01z"/>
	</g>
</g>
</svg>
