<?xml version="1.0" encoding="utf-8"?>
<!-- Generator: Adobe Illustrator 23.0.5, SVG Export Plug-In . SVG Version: 6.00 Build 0)  -->
<svg version="1.1" id="Layer_1" xmlns="http://www.w3.org/2000/svg" xmlns:xlink="http://www.w3.org/1999/xlink" x="0px" y="0px"
	 viewBox="0 0 500 500" style="enable-background:new 0 0 500 500;" xml:space="preserve">
<style type="text/css">
	.st0{fill:#40A651;}
	.st1{fill:#FFFFFF;}
</style>
<g>
	<path class="st1" d="M102.01,147.73c2.7,2.61,7,2.53,9.6-0.17c1.2-1.25,1.88-2.9,1.9-4.64v-12.25h77.05
		c3.73-0.01,6.76-3.04,6.77-6.77V85.79c-0.01-3.73-3.04-6.76-6.77-6.77h-77.05V66.76c0-3.73-3.02-6.76-6.75-6.76
		c-1.78,0-3.49,0.7-4.76,1.95L63.9,100.07c-2.64,2.63-2.64,6.9-0.01,9.54c0,0,0.01,0.01,0.01,0.01L102.01,147.73z"/>
	<path class="st1" d="M439.11,389.5l-38.12-38.12c-2.71-2.6-7.02-2.51-9.62,0.2c-1.19,1.24-1.87,2.89-1.89,4.6v12.25h-77.05
		c-3.73,0.01-6.76,3.04-6.77,6.77v38.12c0.01,3.73,3.04,6.76,6.77,6.77h77.05v12.25c0.04,3.75,3.12,6.76,6.87,6.71
		c1.73-0.02,3.39-0.7,4.64-1.9l38.12-38.12C441.74,396.42,441.74,392.15,439.11,389.5C439.11,389.51,439.11,389.51,439.11,389.5z"/>
	<path class="st1" d="M65.99,245.23l103.38,102.1l102.16-63.84l-12.73-12.53l-69.94,43.26c-3.07,1.89-7.08,1.06-9.14-1.9
		c-1.42-2.04-3.75-3.25-6.23-3.25c-1.9,0.01-3.75,0.68-5.21,1.9c-2.63,2.09-6.38,1.97-8.87-0.27l-49.36-45.09
		c-2.77-2.56-2.94-6.89-0.37-9.66c0.16-0.17,0.33-0.34,0.51-0.49c1.76-1.48,2.77-3.66,2.78-5.96c0.02-1.6-0.48-3.17-1.42-4.47
		c-2.15-3.12-1.36-7.4,1.77-9.55c0.07-0.04,0.13-0.09,0.2-0.13l67.09-41.5l-12.53-12.39L65.99,245.23z"/>
	<path class="st1" d="M164.91,297.29c7.11-3,15.27-2.02,21.46,2.57l62.49-38.73l-58.29-57.48l-64.86,40.08
		c1.49,5.41,0.83,11.18-1.83,16.11L164.91,297.29z M175.61,242.25c10.94-0.71,20.44,7.48,21.33,18.42
		c-0.92,10.91-10.41,19.07-21.33,18.35c-10.93,0.74-20.43-7.43-21.33-18.35C155.15,249.72,164.65,241.51,175.61,242.25z"/>
	<path class="st1" d="M338.09,128.1c-7.11,3-15.27,2.02-21.46-2.57l-63.37,39.2l58.36,57.62l65.67-40.69
		c-1.49-5.41-0.83-11.18,1.83-16.11L338.09,128.1z M327.87,183.68c-10.92,0.72-20.41-7.44-21.33-18.35
		c1.73-11.78,12.69-19.92,24.47-18.19c9.41,1.39,16.8,8.78,18.19,18.19C348.3,176.25,338.8,184.43,327.87,183.68z"/>
	<path class="st1" d="M314.13,111.17c3.07-1.9,7.08-1.07,9.14,1.9c1.42,2.04,3.75,3.25,6.23,3.25c1.9-0.01,3.75-0.68,5.21-1.9
		c2.63-2.09,6.38-1.97,8.87,0.27l49.36,45.09c2.75,2.52,2.94,6.8,0.42,9.55c-0.17,0.19-0.36,0.37-0.55,0.54
		c-1.75,1.52-2.76,3.71-2.78,6.03c-0.02,1.6,0.48,3.17,1.42,4.47c2.14,3.07,1.38,7.3-1.69,9.44c-0.09,0.06-0.18,0.12-0.27,0.18
		l-67.97,42.11l12.52,12.39l102.98-64.32L333.63,78.07l-103.04,64.39l12.73,12.52L314.13,111.17z"/>
	<path class="st1" d="M441.07,193.57l-97.9,61.14c0.45,6.04,0.58,12.09,0.41,18.14l97.49-60.93L441.07,193.57z"/>
	<path class="st1" d="M343.58,307.11l97.49-60.93V227.9l-97.49,60.93V307.11z"/>
	<path class="st1" d="M164.37,399.52c-1.78-0.01-3.48-0.71-4.74-1.96l-97.7-96.48v21.87l99.25,98.1l110.7-69.19v-18.21
		l-103.93,64.86C166.88,399.18,165.64,399.53,164.37,399.52z"/>
	<path class="st1" d="M163.69,360.73L61.93,260.19v21.87l103.38,102.1l106.57-66.48v-18.42l-99.86,62.36
		C169.37,363.28,165.93,362.92,163.69,360.73z"/>
	<path class="st1" d="M330.04,262.96l-44.61,27.83v52.67l44.61-27.89V262.96z"/>
	<path class="st1" d="M218.8,149.77l-38.93,24.31L283.33,276.1l38.93-24.23L218.8,149.77z"/>
	<path class="st1" d="M327.87,160.46c-4.47,0-7.79,2.57-7.79,4.88c0,2.23,3.32,4.81,7.79,4.81s7.79-2.57,7.79-4.81
		C335.66,163.03,332.34,160.46,327.87,160.46z"/>
	<path class="st1" d="M175.61,265.47c4.4,0,7.79-2.57,7.79-4.81c0-2.3-3.39-4.87-7.79-4.87c-4.47,0-7.79,2.57-7.79,4.87
		C167.82,262.9,171.14,265.47,175.61,265.47z"/>
</g>
</svg>
