<?xml version="1.0" encoding="utf-8"?>
<!-- Generator: Adobe Illustrator 23.0.5, SVG Export Plug-In . SVG Version: 6.00 Build 0)  -->
<svg version="1.1" id="Layer_1" xmlns="http://www.w3.org/2000/svg" xmlns:xlink="http://www.w3.org/1999/xlink" x="0px" y="0px"
	 viewBox="0 0 249.37 176.98" style="enable-background:new 0 0 249.37 176.98;" xml:space="preserve">
<style type="text/css">
	.st0{display:none;}
	.st1{display:inline;fill:#00A651;}
	.st2{display:inline;fill:#EE4B29;}
	.st3{display:inline;fill:none;}
	.st4{display:inline;}
	.st5{clip-path:url(#SVGID_2_);fill:#00A651;}
	.st6{clip-path:url(#SVGID_4_);fill:#00A651;}
	.st7{clip-path:url(#SVGID_4_);fill:#FFFFFF;}
	.st8{fill:#00A651;}
	.st9{fill:#EE4B29;}
	.st10{clip-path:url(#SVGID_6_);fill:#00A651;}
	.st11{clip-path:url(#SVGID_8_);fill:#00A651;}
	.st12{clip-path:url(#SVGID_8_);fill:#FFFFFF;}
	.st13{fill:none;}
	.st14{clip-path:url(#SVGID_10_);fill:#00A651;}
	.st15{clip-path:url(#SVGID_12_);fill:#00A651;}
	.st16{clip-path:url(#SVGID_12_);fill:#FFFFFF;}
	.st17{fill:#FFFFFF;}
</style>
<g>
	<path class="st8" d="M142.86,0.34c-8.05,17.86-15.08,36.28-23.4,54.01c-4.6,9.79-13.26,30.31-26.33,30.31H66.9
		c1.82-6.04,4.6-12.02,7.13-17.88c5.29-12.24,10.62-24.67,16.28-36.74c4.38-9.35,13.11-29.71,25.73-29.71H142.86z"/>
	<path class="st9" d="M111.51,84.67c4.9-9.43,8.16-21.22,17.9-26.98c10.24-6.06,26.64-4.05,38.18-4.06c0.7,0.48,0.6,0.96,0.49,1.69
		c-0.24,1.55-4.55,9.92-5.62,11.9c-3.85,7.07-11.4,17.45-20.51,17.45H111.51z"/>
	<polygon class="st9" points="10.74,136.36 21.15,136.36 21.15,144.39 1.22,144.39 1.22,100.36 10.74,100.36 	"/>
	<polygon class="st9" points="35.17,136.5 45.72,136.5 45.72,144.39 25.64,144.39 25.64,100.36 45.72,100.36 45.72,108.12 
		35.17,108.12 35.17,118.46 45.04,118.46 45.04,125.95 35.17,125.95 	"/>
	<rect x="51.64" y="120.85" class="st9" width="23.2" height="7.28"/>
	<polygon class="st8" points="103.76,106.56 90.62,137.31 103.76,137.31 103.76,144.39 80.69,144.39 80.69,138.54 93.89,107.51 
		81.1,107.51 81.1,100.36 103.76,100.36 	"/>
	<polygon class="st8" points="118.45,136.5 129,136.5 129,144.39 108.93,144.39 108.93,100.36 129,100.36 129,108.12 118.45,108.12 
		118.45,118.46 128.32,118.46 128.32,125.95 118.45,125.95 	"/>
	<g>
		<path class="st8" d="M1.74,171.88c0-0.41,0.02-0.8,0.05-1.15c0.03-0.35,0.09-0.73,0.16-1.13h1.61v0.86c0,1.04,0.11,1.84,0.34,2.39
			c0.22,0.55,0.57,0.83,1.03,0.83c0.8,0,1.2-0.55,1.2-1.66c0-0.43-0.07-0.88-0.2-1.36c-0.13-0.48-0.39-1.06-0.77-1.74l-2.17-3.83
			c-0.38-0.69-0.68-1.39-0.89-2.08c-0.21-0.69-0.32-1.47-0.32-2.32c0-1.28,0.28-2.33,0.85-3.15c0.56-0.82,1.35-1.23,2.35-1.23
			c0.81,0,1.44,0.21,1.9,0.62c0.46,0.41,0.78,0.93,0.97,1.56c0.19,0.63,0.29,1.27,0.29,1.92c0,0.42-0.02,0.8-0.07,1.15
			s-0.1,0.74-0.16,1.16h-1.6v-0.93c0-1.02-0.12-1.8-0.35-2.35c-0.23-0.55-0.56-0.83-0.99-0.83c-0.39,0-0.69,0.15-0.89,0.46
			c-0.2,0.31-0.3,0.71-0.3,1.23c0,0.44,0.06,0.84,0.19,1.19c0.13,0.36,0.29,0.73,0.49,1.1l2.41,4.32c0.44,0.81,0.78,1.57,1.01,2.3
			c0.23,0.73,0.35,1.54,0.35,2.43c0,1.33-0.3,2.39-0.91,3.17c-0.6,0.78-1.41,1.17-2.41,1.17c-0.82,0-1.47-0.2-1.94-0.59
			c-0.47-0.4-0.8-0.91-0.99-1.53C1.83,173.22,1.74,172.57,1.74,171.88z"/>
		<path class="st8" d="M9.85,156.47h5.24v2.31h-3.16v5.78h2.48v2.31h-2.48v6.62h3.16v2.31H9.85V156.47z"/>
		<path class="st8" d="M18.13,156.47h2.34l2.56,19.32h-2.08l-0.38-3.46h-2.53l-0.36,3.46h-2.09L18.13,156.47z M20.32,170.13
			l-0.98-9.67h-0.09l-0.99,9.67H20.32z"/>
		<path class="st8" d="M24.27,156.47h2.57l1.37,7.82c0.14,0.82,0.26,1.61,0.34,2.37c0.08,0.76,0.16,1.46,0.22,2.12h0.06
			c0.07-0.66,0.15-1.36,0.23-2.12c0.08-0.76,0.19-1.55,0.33-2.37l1.36-7.82h2.57v19.32h-1.86v-6.39c0-1.31,0.01-2.55,0.04-3.7
			c0.02-1.15,0.05-2.16,0.09-3.03c0.03-0.87,0.06-1.53,0.09-1.98h-0.15l-2.07,12.61h-1.31l-2.08-12.61h-0.15
			c0.03,0.45,0.06,1.11,0.1,1.98c0.03,0.87,0.06,1.88,0.08,3.03c0.02,1.15,0.04,2.39,0.04,3.7v6.39h-1.86V156.47z"/>
		<path class="st8" d="M35.59,156.47h2.08v17.01h2.83v2.31h-4.91V156.47z"/>
		<path class="st8" d="M41.54,156.47h5.24v2.31h-3.16v5.78h2.48v2.31h-2.48v6.62h3.16v2.31h-5.24V156.47z"/>
		<path class="st8" d="M47.51,171.88c0-0.41,0.02-0.8,0.05-1.15c0.03-0.35,0.09-0.73,0.16-1.13h1.61v0.86
			c0,1.04,0.11,1.84,0.34,2.39c0.22,0.55,0.57,0.83,1.03,0.83c0.8,0,1.2-0.55,1.2-1.66c0-0.43-0.07-0.88-0.2-1.36
			c-0.13-0.48-0.39-1.06-0.77-1.74l-2.17-3.83c-0.38-0.69-0.68-1.39-0.89-2.08c-0.21-0.69-0.32-1.47-0.32-2.32
			c0-1.28,0.28-2.33,0.85-3.15c0.56-0.82,1.35-1.23,2.35-1.23c0.81,0,1.44,0.21,1.9,0.62c0.46,0.41,0.78,0.93,0.97,1.56
			c0.19,0.63,0.29,1.27,0.29,1.92c0,0.42-0.02,0.8-0.07,1.15c-0.05,0.35-0.1,0.74-0.16,1.16h-1.6v-0.93c0-1.02-0.12-1.8-0.35-2.35
			c-0.23-0.55-0.56-0.83-0.99-0.83c-0.39,0-0.69,0.15-0.89,0.46c-0.2,0.31-0.3,0.71-0.3,1.23c0,0.44,0.06,0.84,0.19,1.19
			c0.13,0.36,0.29,0.73,0.49,1.1l2.41,4.32c0.44,0.81,0.78,1.57,1.01,2.3c0.23,0.73,0.35,1.54,0.35,2.43c0,1.33-0.3,2.39-0.91,3.17
			c-0.6,0.78-1.41,1.17-2.41,1.17c-0.82,0-1.47-0.2-1.94-0.59c-0.47-0.4-0.8-0.91-0.99-1.53C47.6,173.22,47.51,172.57,47.51,171.88z
			"/>
		<path class="st8" d="M55.01,171.88c0-0.41,0.02-0.8,0.05-1.15c0.03-0.35,0.09-0.73,0.16-1.13h1.61v0.86
			c0,1.04,0.11,1.84,0.34,2.39c0.22,0.55,0.57,0.83,1.03,0.83c0.8,0,1.2-0.55,1.2-1.66c0-0.43-0.07-0.88-0.2-1.36
			c-0.13-0.48-0.39-1.06-0.77-1.74l-2.17-3.83c-0.38-0.69-0.68-1.39-0.89-2.08c-0.21-0.69-0.32-1.47-0.32-2.32
			c0-1.28,0.28-2.33,0.85-3.15c0.56-0.82,1.35-1.23,2.35-1.23c0.81,0,1.44,0.21,1.9,0.62c0.46,0.41,0.78,0.93,0.97,1.56
			c0.19,0.63,0.29,1.27,0.29,1.92c0,0.42-0.02,0.8-0.07,1.15c-0.05,0.35-0.1,0.74-0.16,1.16h-1.6v-0.93c0-1.02-0.12-1.8-0.35-2.35
			c-0.23-0.55-0.56-0.83-0.99-0.83c-0.39,0-0.69,0.15-0.89,0.46c-0.2,0.31-0.3,0.71-0.3,1.23c0,0.44,0.06,0.84,0.19,1.19
			c0.13,0.36,0.29,0.73,0.49,1.1l2.41,4.32c0.44,0.81,0.78,1.57,1.01,2.3c0.23,0.73,0.35,1.54,0.35,2.43c0,1.33-0.3,2.39-0.91,3.17
			c-0.6,0.78-1.41,1.17-2.41,1.17c-0.82,0-1.47-0.2-1.94-0.59c-0.47-0.4-0.8-0.91-0.99-1.53C55.11,173.22,55.01,172.57,55.01,171.88
			z"/>
		<path class="st8" d="M67.94,158.78h-2.21v-2.31h6.48v2.31h-2.2v17.01h-2.08V158.78z"/>
		<path class="st8" d="M73.34,156.47h2.25c0.32,0,0.66,0.03,1.04,0.08c0.38,0.05,0.76,0.17,1.13,0.36c0.37,0.19,0.72,0.48,1.03,0.87
			c0.31,0.4,0.56,0.94,0.75,1.62c0.19,0.68,0.28,1.55,0.28,2.6v0.49c0,2.9-0.62,4.76-1.85,5.59l2.25,7.73h-2.21l-1.88-7.23h-0.71
			v7.23h-2.08V156.47z M75.69,166.45c0.76,0,1.28-0.25,1.57-0.75c0.29-0.5,0.43-1.4,0.43-2.69v-1.53c0-1-0.14-1.73-0.41-2.19
			c-0.27-0.47-0.8-0.7-1.59-0.7h-0.27v7.86H75.69z"/>
		<path class="st8" d="M83.37,156.47h2.34l2.56,19.32h-2.08l-0.38-3.46h-2.53l-0.36,3.46h-2.09L83.37,156.47z M85.57,170.13
			l-0.98-9.67H84.5l-0.99,9.67H85.57z"/>
		<path class="st8" d="M89.52,156.47h1.64l3.34,12.7h0.05c-0.02-0.4-0.05-0.85-0.08-1.34s-0.07-1.09-0.09-1.78
			c-0.03-0.69-0.04-1.54-0.04-2.53v-7.05h1.84v19.32h-1.66l-3.33-12.36h-0.06c0.03,0.45,0.06,0.95,0.09,1.48
			c0.03,0.54,0.06,1.21,0.09,2.02c0.03,0.81,0.04,1.87,0.04,3.18v5.68h-1.83V156.47z"/>
		<path class="st8" d="M97.83,171.88c0-0.41,0.02-0.8,0.05-1.15c0.03-0.35,0.09-0.73,0.16-1.13h1.61v0.86
			c0,1.04,0.11,1.84,0.34,2.39c0.22,0.55,0.57,0.83,1.03,0.83c0.8,0,1.2-0.55,1.2-1.66c0-0.43-0.07-0.88-0.2-1.36
			c-0.13-0.48-0.39-1.06-0.77-1.74l-2.17-3.83c-0.38-0.69-0.68-1.39-0.89-2.08c-0.21-0.69-0.32-1.47-0.32-2.32
			c0-1.28,0.28-2.33,0.85-3.15c0.56-0.82,1.35-1.23,2.35-1.23c0.81,0,1.44,0.21,1.9,0.62c0.46,0.41,0.78,0.93,0.97,1.56
			c0.19,0.63,0.29,1.27,0.29,1.92c0,0.42-0.02,0.8-0.07,1.15s-0.1,0.74-0.16,1.16h-1.6v-0.93c0-1.02-0.12-1.8-0.35-2.35
			c-0.23-0.55-0.56-0.83-0.99-0.83c-0.39,0-0.69,0.15-0.89,0.46c-0.2,0.31-0.3,0.71-0.3,1.23c0,0.44,0.06,0.84,0.19,1.19
			c0.13,0.36,0.29,0.73,0.49,1.1l2.41,4.32c0.44,0.81,0.78,1.57,1.01,2.3c0.23,0.73,0.35,1.54,0.35,2.43c0,1.33-0.3,2.39-0.91,3.17
			c-0.6,0.78-1.41,1.17-2.41,1.17c-0.82,0-1.47-0.2-1.94-0.59c-0.47-0.4-0.8-0.91-0.99-1.53C97.93,173.22,97.83,172.57,97.83,171.88
			z"/>
		<path class="st8" d="M105.95,156.47h5.24v2.4h-3.16v5.69h2.48v2.31h-2.48v8.93h-2.08V156.47z"/>
		<path class="st8" d="M112.31,156.47h5.24v2.31h-3.16v5.78h2.48v2.31h-2.48v6.62h3.16v2.31h-5.24V156.47z"/>
		<path class="st8" d="M118.81,156.47h2.25c0.32,0,0.66,0.03,1.04,0.08c0.38,0.05,0.76,0.17,1.13,0.36
			c0.37,0.19,0.72,0.48,1.03,0.87c0.31,0.4,0.56,0.94,0.75,1.62c0.19,0.68,0.28,1.55,0.28,2.6v0.49c0,2.9-0.62,4.76-1.85,5.59
			l2.25,7.73h-2.21l-1.88-7.23h-0.71v7.23h-2.08V156.47z M121.16,166.45c0.76,0,1.28-0.25,1.57-0.75c0.29-0.5,0.43-1.4,0.43-2.69
			v-1.53c0-1-0.14-1.73-0.41-2.19c-0.27-0.47-0.8-0.7-1.59-0.7h-0.27v7.86H121.16z"/>
		<path class="st8" d="M126.7,171.88c0-0.41,0.02-0.8,0.05-1.15c0.03-0.35,0.09-0.73,0.16-1.13h1.61v0.86
			c0,1.04,0.11,1.84,0.34,2.39c0.22,0.55,0.57,0.83,1.03,0.83c0.8,0,1.2-0.55,1.2-1.66c0-0.43-0.07-0.88-0.2-1.36
			c-0.13-0.48-0.39-1.06-0.77-1.74l-2.17-3.83c-0.38-0.69-0.68-1.39-0.89-2.08c-0.21-0.69-0.32-1.47-0.32-2.32
			c0-1.28,0.28-2.33,0.85-3.15c0.56-0.82,1.35-1.23,2.35-1.23c0.81,0,1.44,0.21,1.9,0.62c0.46,0.41,0.78,0.93,0.97,1.56
			c0.19,0.63,0.29,1.27,0.29,1.92c0,0.42-0.02,0.8-0.07,1.15c-0.05,0.35-0.1,0.74-0.16,1.16h-1.6v-0.93c0-1.02-0.12-1.8-0.35-2.35
			c-0.23-0.55-0.56-0.83-0.99-0.83c-0.39,0-0.69,0.15-0.89,0.46c-0.2,0.31-0.3,0.71-0.3,1.23c0,0.44,0.06,0.84,0.19,1.19
			c0.13,0.36,0.29,0.73,0.49,1.1l2.41,4.32c0.44,0.81,0.78,1.57,1.01,2.3c0.23,0.73,0.35,1.54,0.35,2.43c0,1.33-0.3,2.39-0.91,3.17
			c-0.6,0.78-1.41,1.17-2.41,1.17c-0.82,0-1.47-0.2-1.94-0.59c-0.47-0.4-0.8-0.91-0.99-1.53
			C126.79,173.22,126.7,172.57,126.7,171.88z"/>
		<path class="st8" d="M139.99,169.02l-2.68-12.55h2.09l1.59,9.32h0.1l1.59-9.32h2.08l-2.69,12.55v6.78h-2.08V169.02z"/>
		<path class="st8" d="M148.85,175.96c-0.33,0-0.69-0.07-1.09-0.2c-0.39-0.14-0.77-0.42-1.12-0.85c-0.35-0.43-0.64-1.08-0.87-1.94
			c-0.22-0.86-0.34-2.02-0.34-3.47v-6.84c0-1.16,0.08-2.13,0.23-2.9s0.35-1.39,0.6-1.86c0.25-0.46,0.52-0.81,0.83-1.04
			c0.3-0.23,0.61-0.38,0.91-0.45c0.3-0.07,0.58-0.11,0.84-0.11c0.25,0,0.52,0.03,0.82,0.1c0.3,0.07,0.6,0.21,0.9,0.44
			c0.3,0.22,0.57,0.56,0.82,1.02c0.25,0.46,0.45,1.08,0.6,1.86c0.15,0.78,0.23,1.76,0.23,2.94v6.84c0,1.43-0.12,2.58-0.35,3.44
			c-0.24,0.86-0.53,1.51-0.89,1.94c-0.36,0.43-0.73,0.72-1.11,0.87C149.49,175.89,149.15,175.96,148.85,175.96z M148.85,173.67
			c0.41,0,0.72-0.22,0.91-0.66c0.2-0.44,0.3-1.26,0.3-2.45v-8.71c0-1.24-0.1-2.09-0.3-2.55c-0.2-0.46-0.5-0.7-0.91-0.7
			c-0.42,0-0.73,0.23-0.93,0.7c-0.2,0.46-0.3,1.31-0.3,2.55v8.71c0,1.2,0.1,2.02,0.3,2.45
			C148.12,173.45,148.43,173.67,148.85,173.67z"/>
		<path class="st8" d="M157.51,175.96c-0.24,0-0.5-0.03-0.79-0.1c-0.29-0.06-0.58-0.2-0.87-0.42c-0.29-0.21-0.55-0.54-0.79-0.98
			c-0.24-0.44-0.43-1.04-0.58-1.78c-0.15-0.75-0.22-1.69-0.22-2.83v-13.38h2.08v14.07c0,1.2,0.1,2.02,0.29,2.46
			c0.19,0.44,0.49,0.66,0.89,0.66c0.41,0,0.71-0.22,0.9-0.66c0.19-0.44,0.28-1.26,0.28-2.46v-14.07h2.07v13.38
			c0,1.14-0.07,2.08-0.22,2.83c-0.15,0.75-0.34,1.34-0.58,1.78c-0.24,0.44-0.51,0.77-0.79,0.98c-0.29,0.22-0.58,0.35-0.87,0.42
			C158.02,175.93,157.75,175.96,157.51,175.96z"/>
		<path class="st8" d="M169.72,175.96c-0.33,0-0.69-0.07-1.09-0.2c-0.39-0.14-0.77-0.42-1.12-0.85c-0.35-0.43-0.64-1.08-0.87-1.94
			c-0.22-0.86-0.34-2.02-0.34-3.47v-6.84c0-1.16,0.08-2.13,0.23-2.9s0.35-1.39,0.6-1.86c0.25-0.46,0.52-0.81,0.83-1.04
			c0.3-0.23,0.6-0.38,0.91-0.45c0.3-0.07,0.58-0.11,0.84-0.11c0.71,0,1.26,0.18,1.68,0.55s0.71,0.87,0.89,1.49
			c0.18,0.62,0.27,1.31,0.27,2.05c0,0.42-0.02,0.8-0.07,1.15s-0.1,0.74-0.16,1.16h-1.6v-0.93c0-2.12-0.35-3.18-1.06-3.18
			c-0.38,0-0.67,0.23-0.87,0.7c-0.2,0.46-0.3,1.31-0.3,2.55v8.71c0,1.2,0.1,2.02,0.3,2.45c0.2,0.44,0.51,0.66,0.93,0.66
			c0.29,0,0.54-0.18,0.73-0.53c0.19-0.35,0.29-0.91,0.29-1.69v-1.83h1.82v1.79c0,1.55-0.24,2.69-0.73,3.44
			C171.34,175.59,170.64,175.96,169.72,175.96z"/>
		<path class="st8" d="M175.56,156.47h2.34l2.56,19.32h-2.08l-0.38-3.46h-2.53l-0.36,3.46h-2.09L175.56,156.47z M177.75,170.13
			l-0.98-9.67h-0.09l-0.99,9.67H177.75z"/>
		<path class="st8" d="M181.7,156.47h1.64l3.34,12.7h0.05c-0.02-0.4-0.05-0.85-0.08-1.34c-0.03-0.49-0.07-1.09-0.09-1.78
			c-0.03-0.69-0.04-1.54-0.04-2.53v-7.05h1.84v19.32h-1.66l-3.33-12.36h-0.06c0.03,0.45,0.06,0.95,0.09,1.48
			c0.03,0.54,0.06,1.21,0.09,2.02c0.03,0.81,0.04,1.87,0.04,3.18v5.68h-1.83V156.47z"/>
		<path class="st8" d="M195.44,158.78h-2.21v-2.31h6.48v2.31h-2.2v17.01h-2.08V158.78z"/>
		<path class="st8" d="M200.84,156.47h2.25c0.32,0,0.66,0.03,1.04,0.08c0.38,0.05,0.76,0.17,1.13,0.36
			c0.37,0.19,0.72,0.48,1.03,0.87c0.31,0.4,0.56,0.94,0.75,1.62c0.19,0.68,0.28,1.55,0.28,2.6v0.49c0,2.9-0.62,4.76-1.85,5.59
			l2.25,7.73h-2.21l-1.88-7.23h-0.71v7.23h-2.08V156.47z M203.19,166.45c0.76,0,1.28-0.25,1.57-0.75c0.29-0.5,0.43-1.4,0.43-2.69
			v-1.53c0-1-0.14-1.73-0.41-2.19c-0.27-0.47-0.8-0.7-1.59-0.7h-0.27v7.86H203.19z"/>
		<path class="st8" d="M212.4,175.96c-0.24,0-0.5-0.03-0.79-0.1c-0.29-0.06-0.58-0.2-0.87-0.42c-0.29-0.21-0.55-0.54-0.79-0.98
			c-0.24-0.44-0.43-1.04-0.58-1.78c-0.15-0.75-0.22-1.69-0.22-2.83v-13.38h2.08v14.07c0,1.2,0.1,2.02,0.29,2.46
			c0.19,0.44,0.49,0.66,0.89,0.66c0.41,0,0.71-0.22,0.9-0.66c0.19-0.44,0.28-1.26,0.28-2.46v-14.07h2.07v13.38
			c0,1.14-0.07,2.08-0.22,2.83c-0.15,0.75-0.34,1.34-0.58,1.78c-0.24,0.44-0.51,0.77-0.79,0.98c-0.29,0.22-0.58,0.35-0.87,0.42
			C212.9,175.93,212.64,175.96,212.4,175.96z"/>
		<path class="st8" d="M217.31,171.88c0-0.41,0.02-0.8,0.05-1.15c0.03-0.35,0.09-0.73,0.16-1.13h1.61v0.86
			c0,1.04,0.11,1.84,0.34,2.39c0.22,0.55,0.57,0.83,1.03,0.83c0.8,0,1.2-0.55,1.2-1.66c0-0.43-0.07-0.88-0.2-1.36
			c-0.13-0.48-0.39-1.06-0.77-1.74l-2.17-3.83c-0.38-0.69-0.68-1.39-0.89-2.08c-0.21-0.69-0.32-1.47-0.32-2.32
			c0-1.28,0.28-2.33,0.85-3.15c0.56-0.82,1.35-1.23,2.35-1.23c0.81,0,1.44,0.21,1.9,0.62c0.46,0.41,0.78,0.93,0.97,1.56
			c0.19,0.63,0.29,1.27,0.29,1.92c0,0.42-0.02,0.8-0.07,1.15s-0.1,0.74-0.16,1.16h-1.6v-0.93c0-1.02-0.12-1.8-0.35-2.35
			c-0.23-0.55-0.56-0.83-0.99-0.83c-0.39,0-0.69,0.15-0.89,0.46c-0.2,0.31-0.3,0.71-0.3,1.23c0,0.44,0.06,0.84,0.19,1.19
			c0.13,0.36,0.29,0.73,0.49,1.1l2.41,4.32c0.44,0.81,0.78,1.57,1.01,2.3c0.23,0.73,0.35,1.54,0.35,2.43c0,1.33-0.3,2.39-0.91,3.17
			c-0.6,0.78-1.41,1.17-2.41,1.17c-0.82,0-1.47-0.2-1.94-0.59c-0.47-0.4-0.8-0.91-0.99-1.53
			C217.41,173.22,217.31,172.57,217.31,171.88z"/>
		<path class="st8" d="M226.63,158.78h-2.21v-2.31h6.48v2.31h-2.2v17.01h-2.08V158.78z"/>
	</g>
	<path class="st8" d="M143.97,144.39h-9.53v-35.72c0-5.99,2.81-8.98,8.44-8.98h5.04c3.31,0,5.67,1.09,7.08,3.27
		c1.31-2.18,3.67-3.27,7.08-3.27h5.04c5.62,0,8.44,2.99,8.44,8.98v35.72h-9.53v-36.54c0-0.36-0.13-0.68-0.37-0.95
		c-0.25-0.27-0.56-0.41-0.92-0.41h-3.67c-0.36,0-0.67,0.14-0.92,0.41c-0.25,0.27-0.37,0.59-0.37,0.95v36.54h-9.53v-36.54
		c0-0.36-0.13-0.68-0.37-0.95c-0.25-0.27-0.56-0.41-0.92-0.41h-3.67c-0.36,0-0.67,0.14-0.92,0.41c-0.25,0.27-0.37,0.59-0.37,0.95
		V144.39z"/>
	<polygon class="st8" points="191.6,136.5 202.14,136.5 202.14,144.39 182.07,144.39 182.07,100.36 202.14,100.36 202.14,108.12 
		191.6,108.12 191.6,118.46 201.46,118.46 201.46,125.95 191.6,125.95 	"/>
	<polygon class="st8" points="248.6,87.08 248.6,157.26 205.77,144.27 205.77,100.07 	"/>
	<path class="st17" d="M225.14,100.36c5.62,0,8.44,2.99,8.44,8.98v26.06c0,5.99-2.81,8.98-8.44,8.98h-17.49v-44.02H225.14z
		 M224.05,136.5v-28.31c0-0.36-0.13-0.68-0.37-0.95c-0.25-0.27-0.56-0.41-0.92-0.41h-5.58v31.03h5.58c0.36,0,0.67-0.14,0.92-0.41
		C223.93,137.18,224.05,136.86,224.05,136.5"/>
</g>
</svg>
