<?xml version="1.0" encoding="UTF-8"?>
<!DOCTYPE svg PUBLIC "-//W3C//DTD SVG 1.1//EN" "http://www.w3.org/Graphics/SVG/1.1/DTD/svg11.dtd">
<svg xmlns="http://www.w3.org/2000/svg" version="1.1" width="349px" height="251px" style="shape-rendering:geometricPrecision; text-rendering:geometricPrecision; image-rendering:optimizeQuality; fill-rule:evenodd; clip-rule:evenodd" xmlns:xlink="http://www.w3.org/1999/xlink">
<g><path style="opacity:0.973" fill="#00a650" d="M 159.5,1.5 C 173.183,1.16746 186.85,1.50079 200.5,2.5C 187.098,35.3066 172.598,67.6399 157,99.5C 152.087,108.747 144.92,115.581 135.5,120C 121.504,120.5 107.504,120.667 93.5,120.5C 105.379,87.7326 119.213,55.7326 135,24.5C 140.197,13.4639 148.363,5.79722 159.5,1.5 Z"/></g>
<g><path style="opacity:0.964" fill="#ed4b28" d="M 204.5,75.5 C 214.841,75.6486 225.174,75.9819 235.5,76.5C 231.755,90.8232 224.755,103.323 214.5,114C 211.282,116.777 207.615,118.777 203.5,120C 187.49,120.833 171.49,120.666 155.5,119.5C 160.049,108.064 165.882,97.3972 173,87.5C 182.151,79.762 192.651,75.762 204.5,75.5 Z"/></g>
<g><path style="opacity:0.95" fill="#0ba754" d="M 348.5,123.5 C 348.5,156.5 348.5,189.5 348.5,222.5C 328.211,216.345 307.878,210.345 287.5,204.5C 287.5,183.167 287.5,161.833 287.5,140.5C 307.784,134.627 328.117,128.96 348.5,123.5 Z"/></g>
<g><path style="opacity:0.949" fill="#00a650" d="M 195.5,140.5 C 200.511,140.334 205.511,140.501 210.5,141C 213.034,141.516 215.2,142.683 217,144.5C 220.615,141.109 224.948,139.775 230,140.5C 234.694,140.096 239.028,141.096 243,143.5C 243.667,144.833 244.333,146.167 245,147.5C 245.5,166.497 245.667,185.497 245.5,204.5C 240.833,204.5 236.167,204.5 231.5,204.5C 231.5,186.833 231.5,169.167 231.5,151.5C 228.881,151.232 226.381,151.565 224,152.5C 223.5,169.83 223.333,187.163 223.5,204.5C 218.833,204.5 214.167,204.5 209.5,204.5C 209.5,186.833 209.5,169.167 209.5,151.5C 206.881,151.232 204.381,151.565 202,152.5C 201.5,169.83 201.333,187.163 201.5,204.5C 196.833,204.5 192.167,204.5 187.5,204.5C 187.333,185.83 187.5,167.164 188,148.5C 189.353,144.65 191.853,141.983 195.5,140.5 Z"/></g>
<g><path style="opacity:0.929" fill="#ed4b28" d="M 1.5,141.5 C 6.16667,141.5 10.8333,141.5 15.5,141.5C 15.5,158.167 15.5,174.833 15.5,191.5C 20.5,191.5 25.5,191.5 30.5,191.5C 30.5,195.833 30.5,200.167 30.5,204.5C 20.8333,204.5 11.1667,204.5 1.5,204.5C 1.5,183.5 1.5,162.5 1.5,141.5 Z"/></g>
<g><path style="opacity:0.929" fill="#ed4b28" d="M 35.5,141.5 C 45.1667,141.5 54.8333,141.5 64.5,141.5C 64.5,145.5 64.5,149.5 64.5,153.5C 59.5,153.5 54.5,153.5 49.5,153.5C 49.5,157.833 49.5,162.167 49.5,166.5C 54.1667,166.5 58.8333,166.5 63.5,166.5C 63.5,170.5 63.5,174.5 63.5,178.5C 58.8333,178.5 54.1667,178.5 49.5,178.5C 49.5,183.167 49.5,187.833 49.5,192.5C 54.5,192.5 59.5,192.5 64.5,192.5C 64.5,196.5 64.5,200.5 64.5,204.5C 54.8333,204.5 45.1667,204.5 35.5,204.5C 35.5,183.5 35.5,162.5 35.5,141.5 Z"/></g>
<g><path style="opacity:0.92" fill="#00a650" d="M 112.5,141.5 C 123.5,141.5 134.5,141.5 145.5,141.5C 145.665,145.182 145.499,148.848 145,152.5C 139.296,166.073 133.462,179.573 127.5,193C 133.491,193.499 139.491,193.666 145.5,193.5C 145.5,197.167 145.5,200.833 145.5,204.5C 134.5,204.5 123.5,204.5 112.5,204.5C 112.335,200.818 112.501,197.152 113,193.5C 118.704,179.927 124.538,166.427 130.5,153C 124.509,152.501 118.509,152.334 112.5,152.5C 112.5,148.833 112.5,145.167 112.5,141.5 Z"/></g>
<g><path style="opacity:0.912" fill="#00a650" d="M 151.5,141.5 C 161.167,141.5 170.833,141.5 180.5,141.5C 180.5,145.5 180.5,149.5 180.5,153.5C 175.833,153.5 171.167,153.5 166.5,153.5C 166.5,157.833 166.5,162.167 166.5,166.5C 170.833,166.5 175.167,166.5 179.5,166.5C 179.5,170.5 179.5,174.5 179.5,178.5C 175.167,178.5 170.833,178.5 166.5,178.5C 166.5,183.167 166.5,187.833 166.5,192.5C 171.167,192.5 175.833,192.5 180.5,192.5C 180.5,196.5 180.5,200.5 180.5,204.5C 170.833,204.5 161.167,204.5 151.5,204.5C 151.5,183.5 151.5,162.5 151.5,141.5 Z"/></g>
<g><path style="opacity:0.929" fill="#00a650" d="M 254.5,141.5 C 264.167,141.5 273.833,141.5 283.5,141.5C 283.5,145.5 283.5,149.5 283.5,153.5C 278.5,153.5 273.5,153.5 268.5,153.5C 268.5,157.833 268.5,162.167 268.5,166.5C 273.167,166.5 277.833,166.5 282.5,166.5C 282.5,170.5 282.5,174.5 282.5,178.5C 277.833,178.5 273.167,178.5 268.5,178.5C 268.5,183.167 268.5,187.833 268.5,192.5C 273.5,192.5 278.5,192.5 283.5,192.5C 283.5,196.5 283.5,200.5 283.5,204.5C 273.833,204.5 264.167,204.5 254.5,204.5C 254.5,183.5 254.5,162.5 254.5,141.5 Z"/></g>
<g><path style="opacity:1" fill="#fefefe" d="M 290.5,142.5 C 301.27,142.047 311.937,142.547 322.5,144C 324.041,145.579 325.208,147.413 326,149.5C 326.667,164.833 326.667,180.167 326,195.5C 325.573,199.527 323.406,202.027 319.5,203C 309.839,203.5 300.172,203.666 290.5,203.5C 290.5,183.167 290.5,162.833 290.5,142.5 Z"/></g>
<g><path style="opacity:1" fill="#42bc7e" d="M 304.5,151.5 C 304.5,165.5 304.5,179.5 304.5,193.5C 307.167,193.5 309.833,193.5 312.5,193.5C 309.713,194.477 306.713,194.81 303.5,194.5C 303.171,179.99 303.504,165.657 304.5,151.5 Z"/></g>
<g><path style="opacity:1" fill="#1faa59" d="M 304.5,151.5 C 307.448,151.223 310.281,151.556 313,152.5C 313.827,166.34 313.661,180.006 312.5,193.5C 309.833,193.5 307.167,193.5 304.5,193.5C 304.5,179.5 304.5,165.5 304.5,151.5 Z"/></g>
<g><path style="opacity:0.92" fill="#ed4b28" d="M 71.5,170.5 C 82.8333,170.5 94.1667,170.5 105.5,170.5C 105.5,174.167 105.5,177.833 105.5,181.5C 94.1667,181.5 82.8333,181.5 71.5,181.5C 71.5,177.833 71.5,174.167 71.5,170.5 Z"/></g>
<g><path style="opacity:0.793" fill="#00a650" d="M 4.5,220.5 C 10.8311,220.11 13.1644,223.11 11.5,229.5C 10.5,229.5 9.5,229.5 8.5,229.5C 8.81864,227.25 8.31864,225.25 7,223.5C 6.30762,224.025 5.80762,224.692 5.5,225.5C 8.22782,230.458 10.5612,235.625 12.5,241C 11.8819,246.623 8.88193,248.623 3.5,247C 2.55621,244.281 2.22288,241.448 2.5,238.5C 3.5,238.5 4.5,238.5 5.5,238.5C 5.18136,240.75 5.68136,242.75 7,244.5C 7.86992,243.892 8.36992,243.059 8.5,242C 7.05656,238.279 5.22322,234.779 3,231.5C 2.01305,227.525 2.51305,223.859 4.5,220.5 Z"/></g>
<g><path style="opacity:0.789" fill="#00a650" d="M 13.5,220.5 C 16.1667,220.5 18.8333,220.5 21.5,220.5C 21.5,221.5 21.5,222.5 21.5,223.5C 20.1667,223.5 18.8333,223.5 17.5,223.5C 17.5,226.167 17.5,228.833 17.5,231.5C 18.5,231.5 19.5,231.5 20.5,231.5C 20.5,232.5 20.5,233.5 20.5,234.5C 19.5,234.5 18.5,234.5 17.5,234.5C 17.5,237.833 17.5,241.167 17.5,244.5C 19.1439,244.714 20.6439,244.38 22,243.5C 23.1629,235.861 23.9962,228.195 24.5,220.5C 26.1667,220.5 27.8333,220.5 29.5,220.5C 30.5821,229.49 31.5821,238.49 32.5,247.5C 31.1667,247.5 29.8333,247.5 28.5,247.5C 28.5,245.833 28.5,244.167 28.5,242.5C 27.5,242.5 26.5,242.5 25.5,242.5C 25.5,244.167 25.5,245.833 25.5,247.5C 21.5,247.5 17.5,247.5 13.5,247.5C 13.5,238.5 13.5,229.5 13.5,220.5 Z M 26.5,231.5 C 27.21,233.893 27.8767,236.393 28.5,239C 28.1667,239.167 27.8333,239.333 27.5,239.5C 26.52,236.914 26.1866,234.247 26.5,231.5 Z"/></g>
<g><path style="opacity:0.711" fill="#00a650" d="M 33.5,220.5 C 35.1667,220.5 36.8333,220.5 38.5,220.5C 39.8269,233.817 41.1603,233.817 42.5,220.5C 44.1667,220.5 45.8333,220.5 47.5,220.5C 47.5,229.5 47.5,238.5 47.5,247.5C 46.1667,247.5 44.8333,247.5 43.5,247.5C 43.6653,243.818 43.4986,240.152 43,236.5C 42.6667,238.833 42.3333,241.167 42,243.5C 41,244.833 40,244.833 39,243.5C 38.6667,241.5 38.3333,239.5 38,237.5C 37.5017,240.817 37.335,244.15 37.5,247.5C 36.1667,247.5 34.8333,247.5 33.5,247.5C 33.5,238.5 33.5,229.5 33.5,220.5 Z"/></g>
<g><path style="opacity:0.781" fill="#00a650" d="M 49.5,220.5 C 50.8333,220.5 52.1667,220.5 53.5,220.5C 53.5,228.5 53.5,236.5 53.5,244.5C 54.8333,244.5 56.1667,244.5 57.5,244.5C 57.5,236.5 57.5,228.5 57.5,220.5C 60.1667,220.5 62.8333,220.5 65.5,220.5C 65.5,221.5 65.5,222.5 65.5,223.5C 64.1667,223.5 62.8333,223.5 61.5,223.5C 61.5,226.167 61.5,228.833 61.5,231.5C 62.5,231.5 63.5,231.5 64.5,231.5C 64.5,232.5 64.5,233.5 64.5,234.5C 63.5,234.5 62.5,234.5 61.5,234.5C 61.5,237.833 61.5,241.167 61.5,244.5C 62.8333,244.5 64.1667,244.5 65.5,244.5C 65.5,245.5 65.5,246.5 65.5,247.5C 60.1667,247.5 54.8333,247.5 49.5,247.5C 49.5,238.5 49.5,229.5 49.5,220.5 Z"/></g>
<g><path style="opacity:0.761" fill="#00a650" d="M 68.5,220.5 C 74.8311,220.11 77.1644,223.11 75.5,229.5C 74.5,229.5 73.5,229.5 72.5,229.5C 72.8186,227.25 72.3186,225.25 71,223.5C 70.3076,224.025 69.8076,224.692 69.5,225.5C 71.9237,230.016 74.0904,234.683 76,239.5C 77.1827,238.269 78.3493,238.269 79.5,239.5C 79.9766,240.931 80.6433,242.264 81.5,243.5C 81.8333,242.833 82.1667,242.167 82.5,241.5C 80.8759,237.385 79.0426,233.385 77,229.5C 75.3063,222.657 77.8063,219.824 84.5,221C 86.1793,223.565 86.846,226.398 86.5,229.5C 85.1667,229.5 83.8333,229.5 82.5,229.5C 82.7852,227.712 82.4519,226.045 81.5,224.5C 80.3861,225.723 80.2195,227.056 81,228.5C 83.7949,232.255 85.6282,236.422 86.5,241C 86.6881,246.812 84.0214,248.812 78.5,247C 77.1068,245.829 76.2735,244.329 76,242.5C 74.923,247.115 72.0897,248.615 67.5,247C 66.5562,244.281 66.2229,241.448 66.5,238.5C 67.5,238.5 68.5,238.5 69.5,238.5C 69.1814,240.75 69.6814,242.75 71,244.5C 71.8699,243.892 72.3699,243.059 72.5,242C 71.0566,238.279 69.2232,234.779 67,231.5C 66.013,227.525 66.513,223.859 68.5,220.5 Z"/></g>
<g><path style="opacity:0.762" fill="#00a650" d="M 91.5,220.5 C 94.8333,220.5 98.1667,220.5 101.5,220.5C 101.5,221.5 101.5,222.5 101.5,223.5C 100.5,223.5 99.5,223.5 98.5,223.5C 98.5,231.5 98.5,239.5 98.5,247.5C 97.1667,247.5 95.8333,247.5 94.5,247.5C 94.5,239.5 94.5,231.5 94.5,223.5C 93.5,223.5 92.5,223.5 91.5,223.5C 91.5,222.5 91.5,221.5 91.5,220.5 Z"/></g>
<g><path style="opacity:0.813" fill="#00a650" d="M 102.5,220.5 C 109.102,219.103 112.435,221.77 112.5,228.5C 112.262,231.799 111.262,234.799 109.5,237.5C 110.432,239.795 111.265,242.129 112,244.5C 114.042,236.709 115.209,228.709 115.5,220.5C 117.167,220.5 118.833,220.5 120.5,220.5C 121.582,229.49 122.582,238.49 123.5,247.5C 122.167,247.5 120.833,247.5 119.5,247.5C 119.5,245.833 119.5,244.167 119.5,242.5C 118.5,242.5 117.5,242.5 116.5,242.5C 116.5,244.167 116.5,245.833 116.5,247.5C 113.753,247.813 111.086,247.48 108.5,246.5C 106.088,234.613 105.088,234.946 105.5,247.5C 104.5,247.5 103.5,247.5 102.5,247.5C 102.5,238.5 102.5,229.5 102.5,220.5 Z M 105.5,223.5 C 107.876,224.512 108.876,226.345 108.5,229C 108.742,231.348 107.908,233.182 106,234.5C 105.501,230.848 105.335,227.182 105.5,223.5 Z M 117.5,231.5 C 118.21,233.893 118.877,236.393 119.5,239C 119.167,239.167 118.833,239.333 118.5,239.5C 117.52,236.914 117.187,234.247 117.5,231.5 Z"/></g>
<g><path style="opacity:0.76" fill="#00a650" d="M 124.5,220.5 C 125.833,220.5 127.167,220.5 128.5,220.5C 130.777,236.315 131.777,236.315 131.5,220.5C 132.5,220.5 133.5,220.5 134.5,220.5C 134.5,229.5 134.5,238.5 134.5,247.5C 133.325,247.719 132.325,247.386 131.5,246.5C 129.088,234.613 128.088,234.946 128.5,247.5C 127.167,247.5 125.833,247.5 124.5,247.5C 124.5,238.5 124.5,229.5 124.5,220.5 Z"/></g>
<g><path style="opacity:0.743" fill="#00a650" d="M 138.5,220.5 C 144.799,219.527 147.299,222.193 146,228.5C 144.989,229.337 143.822,229.67 142.5,229.5C 142.819,227.25 142.319,225.25 141,223.5C 140.333,225.167 140.333,226.833 141,228.5C 143.93,232.362 145.764,236.695 146.5,241.5C 146.419,247.022 143.752,248.856 138.5,247C 136.686,244.519 136.02,241.685 136.5,238.5C 137.5,238.5 138.5,238.5 139.5,238.5C 139.372,240.655 139.872,242.655 141,244.5C 141.87,243.892 142.37,243.059 142.5,242C 140.803,238.106 138.97,234.273 137,230.5C 136.037,226.851 136.537,223.518 138.5,220.5 Z"/></g>
<g><path style="opacity:0.784" fill="#00a650" d="M 147.5,220.5 C 150.167,220.5 152.833,220.5 155.5,220.5C 155.5,221.5 155.5,222.5 155.5,223.5C 154.167,223.5 152.833,223.5 151.5,223.5C 151.5,226.167 151.5,228.833 151.5,231.5C 152.5,231.5 153.5,231.5 154.5,231.5C 154.5,232.5 154.5,233.5 154.5,234.5C 153.5,234.5 152.5,234.5 151.5,234.5C 151.5,238.833 151.5,243.167 151.5,247.5C 150.167,247.5 148.833,247.5 147.5,247.5C 147.5,238.5 147.5,229.5 147.5,220.5 Z"/></g>
<g><path style="opacity:0.811" fill="#00a650" d="M 156.5,220.5 C 159.167,220.5 161.833,220.5 164.5,220.5C 164.5,221.5 164.5,222.5 164.5,223.5C 163.167,223.5 161.833,223.5 160.5,223.5C 160.5,226.167 160.5,228.833 160.5,231.5C 161.5,231.5 162.5,231.5 163.5,231.5C 163.5,232.5 163.5,233.5 163.5,234.5C 162.5,234.5 161.5,234.5 160.5,234.5C 160.5,237.833 160.5,241.167 160.5,244.5C 161.833,244.5 163.167,244.5 164.5,244.5C 164.5,245.5 164.5,246.5 164.5,247.5C 161.833,247.5 159.167,247.5 156.5,247.5C 156.5,238.5 156.5,229.5 156.5,220.5 Z"/></g>
<g><path style="opacity:0.751" fill="#00a650" d="M 165.5,220.5 C 167.857,220.337 170.19,220.503 172.5,221C 173.667,221.5 174.5,222.333 175,223.5C 175.939,228.509 175.439,233.342 173.5,238C 174.196,241.125 175.196,244.125 176.5,247C 174.866,247.494 173.199,247.66 171.5,247.5C 170.196,236.932 169.53,236.932 169.5,247.5C 168.167,247.5 166.833,247.5 165.5,247.5C 165.5,238.5 165.5,229.5 165.5,220.5 Z M 169.5,223.5 C 170.117,223.611 170.617,223.944 171,224.5C 171.903,228.033 171.57,231.367 170,234.5C 169.501,230.848 169.335,227.182 169.5,223.5 Z"/></g>
<g><path style="opacity:0.755" fill="#00a650" d="M 178.5,220.5 C 185.333,219.67 188,222.67 186.5,229.5C 185.5,229.5 184.5,229.5 183.5,229.5C 183.628,227.345 183.128,225.345 182,223.5C 181.13,224.108 180.63,224.941 180.5,226C 181.943,229.721 183.777,233.221 186,236.5C 186.667,239.5 186.667,242.5 186,245.5C 179.086,249.504 176.086,247.504 177,239.5C 178.011,238.663 179.178,238.33 180.5,238.5C 180.181,240.75 180.681,242.75 182,244.5C 182.667,242.5 182.667,240.5 182,238.5C 177.116,233.068 175.949,227.068 178.5,220.5 Z"/></g>
<g><path style="opacity:0.781" fill="#00a650" d="M 191.5,220.5 C 192.833,220.5 194.167,220.5 195.5,220.5C 196.501,233.831 197.501,233.831 198.5,220.5C 199.833,220.5 201.167,220.5 202.5,220.5C 200.39,229.385 199.056,238.385 198.5,247.5C 197.5,247.5 196.5,247.5 195.5,247.5C 195.202,238.345 193.869,229.345 191.5,220.5 Z"/></g>
<g><path style="opacity:0.784" fill="#00a650" d="M 205.5,220.5 C 209.757,219.597 212.257,221.264 213,225.5C 213.877,232.249 213.544,238.916 212,245.5C 206.945,248.949 203.945,247.616 203,241.5C 202.333,236.5 202.333,231.5 203,226.5C 203.236,224.189 204.069,222.189 205.5,220.5 Z M 207.5,223.5 C 208.117,223.611 208.617,223.944 209,224.5C 209.167,227.667 209.333,230.833 209.5,234C 208.582,247.917 207.582,247.917 206.5,234C 206.58,230.45 206.914,226.95 207.5,223.5 Z"/></g>
<g><path style="opacity:0.824" fill="#00a650" d="M 215.5,220.5 C 216.5,220.5 217.5,220.5 218.5,220.5C 218.099,228.585 218.599,236.585 220,244.5C 221.466,236.672 221.966,228.672 221.5,220.5C 222.833,220.5 224.167,220.5 225.5,220.5C 225.906,228.917 225.406,237.251 224,245.5C 221.333,248.167 218.667,248.167 216,245.5C 215.5,237.173 215.334,228.84 215.5,220.5 Z"/></g>
<g><path style="opacity:0.804" fill="#00a650" d="M 234.5,220.5 C 240.826,220.174 243.159,223.174 241.5,229.5C 240.5,229.5 239.5,229.5 238.5,229.5C 238.628,227.345 238.128,225.345 237,223.5C 235,230.5 235,237.5 237,244.5C 238.319,242.75 238.819,240.75 238.5,238.5C 239.5,238.5 240.5,238.5 241.5,238.5C 241.34,240.199 241.506,241.866 242,243.5C 243.163,235.861 243.996,228.195 244.5,220.5C 246.167,220.5 247.833,220.5 249.5,220.5C 250.582,229.49 251.582,238.49 252.5,247.5C 251.167,247.5 249.833,247.5 248.5,247.5C 248.5,245.833 248.5,244.167 248.5,242.5C 247.5,242.5 246.5,242.5 245.5,242.5C 245.5,244.167 245.5,245.833 245.5,247.5C 243.549,247.773 242.049,247.107 241,245.5C 238.333,248.167 235.667,248.167 233,245.5C 232.333,237.833 232.333,230.167 233,222.5C 233.717,221.956 234.217,221.289 234.5,220.5 Z M 246.5,231.5 C 247.21,233.893 247.877,236.393 248.5,239C 248.167,239.167 247.833,239.333 247.5,239.5C 246.52,236.914 246.187,234.247 246.5,231.5 Z"/></g>
<g><path style="opacity:0.76" fill="#00a650" d="M 253.5,220.5 C 254.833,220.5 256.167,220.5 257.5,220.5C 259.777,236.315 260.777,236.315 260.5,220.5C 261.5,220.5 262.5,220.5 263.5,220.5C 263.5,229.5 263.5,238.5 263.5,247.5C 262.325,247.719 261.325,247.386 260.5,246.5C 258.088,234.613 257.088,234.946 257.5,247.5C 256.167,247.5 254.833,247.5 253.5,247.5C 253.5,238.5 253.5,229.5 253.5,220.5 Z"/></g>
<g><path style="opacity:0.762" fill="#00a650" d="M 269.5,220.5 C 272.833,220.5 276.167,220.5 279.5,220.5C 279.5,221.5 279.5,222.5 279.5,223.5C 278.5,223.5 277.5,223.5 276.5,223.5C 276.5,231.5 276.5,239.5 276.5,247.5C 275.167,247.5 273.833,247.5 272.5,247.5C 272.5,239.5 272.5,231.5 272.5,223.5C 271.5,223.5 270.5,223.5 269.5,223.5C 269.5,222.5 269.5,221.5 269.5,220.5 Z"/></g>
<g><path style="opacity:0.767" fill="#00a650" d="M 280.5,220.5 C 282.857,220.337 285.19,220.503 287.5,221C 291.5,226.333 291.5,231.667 287.5,237C 289.042,240.334 290.042,243.834 290.5,247.5C 289.167,247.5 287.833,247.5 286.5,247.5C 285.2,238.276 284.534,238.276 284.5,247.5C 283.167,247.5 281.833,247.5 280.5,247.5C 280.5,238.5 280.5,229.5 280.5,220.5 Z M 284.5,223.5 C 285.117,223.611 285.617,223.944 286,224.5C 286.817,227.964 286.483,231.298 285,234.5C 284.501,230.848 284.335,227.182 284.5,223.5 Z"/></g>
<g><path style="opacity:0.832" fill="#00a650" d="M 291.5,220.5 C 292.833,220.5 294.167,220.5 295.5,220.5C 295.034,228.672 295.534,236.672 297,244.5C 298.435,236.611 298.935,228.611 298.5,220.5C 299.5,220.5 300.5,220.5 301.5,220.5C 301.666,228.84 301.5,237.173 301,245.5C 295.945,248.949 292.945,247.616 292,241.5C 291.5,234.508 291.334,227.508 291.5,220.5 Z"/></g>
<g><path style="opacity:0.743" fill="#00a650" d="M 305.5,220.5 C 311.799,219.527 314.299,222.193 313,228.5C 311.989,229.337 310.822,229.67 309.5,229.5C 309.819,227.25 309.319,225.25 308,223.5C 307.333,225.167 307.333,226.833 308,228.5C 310.93,232.362 312.764,236.695 313.5,241.5C 313.419,247.022 310.752,248.856 305.5,247C 303.686,244.519 303.02,241.685 303.5,238.5C 304.5,238.5 305.5,238.5 306.5,238.5C 306.372,240.655 306.872,242.655 308,244.5C 308.87,243.892 309.37,243.059 309.5,242C 307.803,238.106 305.97,234.273 304,230.5C 303.037,226.851 303.537,223.518 305.5,220.5 Z"/></g>
<g><path style="opacity:0.763" fill="#00a650" d="M 313.5,220.5 C 316.833,220.5 320.167,220.5 323.5,220.5C 323.5,221.5 323.5,222.5 323.5,223.5C 322.5,223.5 321.5,223.5 320.5,223.5C 320.5,231.5 320.5,239.5 320.5,247.5C 319.167,247.5 317.833,247.5 316.5,247.5C 316.5,239.5 316.5,231.5 316.5,223.5C 315.5,223.5 314.5,223.5 313.5,223.5C 313.5,222.5 313.5,221.5 313.5,220.5 Z"/></g>
</svg>
