<?xml version="1.0" encoding="UTF-8"?>
<!DOCTYPE svg PUBLIC "-//W3C//DTD SVG 1.1//EN" "http://www.w3.org/Graphics/SVG/1.1/DTD/svg11.dtd">
<!-- Creator: CorelDRAW 2021 (64-Bit) -->
<svg xmlns="http://www.w3.org/2000/svg" xml:space="preserve" width="42.3333mm" height="8.291mm" version="1.1" style="shape-rendering:geometricPrecision; text-rendering:geometricPrecision; image-rendering:optimizeQuality; fill-rule:evenodd; clip-rule:evenodd"
viewBox="0 0 1816.68 355.8"
 xmlns:xlink="http://www.w3.org/1999/xlink"
 xmlns:xodm="http://www.corel.com/coreldraw/odm/2003">
 <defs>
  <style type="text/css">
   <![CDATA[
    .fil0 {fill:#1D7C73;fill-rule:nonzero}
    .fil1 {fill:#79B338;fill-rule:nonzero}
   ]]>
  </style>
 </defs>
 <g id="Layer_x0020_1">
  <metadata id="CorelCorpID_0Corel-Layer"/>
  <g id="_1800282001840">
   <path class="fil0" d="M529.95 170.08c-2.77,-22.13 -20.06,-33.2 -44.27,-33.2 -22.82,0 -41.5,11.07 -47.72,33.2l91.99 0zm-92.68 34.92c2.77,21.1 21.1,36.31 50.84,36.31 15.56,0 35.97,-5.88 45.65,-15.91l26.98 26.63c-17.98,18.67 -47.38,27.66 -73.31,27.66 -58.79,0 -93.71,-36.3 -93.71,-90.95 0,-51.87 35.27,-89.22 90.6,-89.22 57.06,0 92.68,35.28 86.11,105.47l-133.14 0z"/>
   <path class="fil0" d="M652.01 75.67l0 77.46 69.51 0c29.05,0 41.5,-19.37 41.5,-38.73 0,-19.36 -12.79,-38.73 -41.5,-38.73l-69.51 0zm168.76 199.54l-54.29 0 -70.55 -80.92 -43.92 0 0 80.92 -45.65 0 0 -242.41c38.39,0 76.77,0.34 115.15,0.34 57.06,0.34 87.15,38.39 87.15,80.23 0,33.2 -15.22,66.74 -61.21,76.08l73.31 82.65 0 3.11z"/>
   <path class="fil0" d="M964.97 170.08c-2.76,-22.13 -20.05,-33.2 -44.27,-33.2 -22.82,0 -41.49,11.07 -47.72,33.2l91.99 0zm-92.68 34.92c2.76,21.1 21.1,36.31 50.84,36.31 15.56,0 35.97,-5.88 45.64,-15.91l26.98 26.63c-17.98,18.67 -47.38,27.66 -73.31,27.66 -58.79,0 -93.71,-36.3 -93.71,-90.95 0,-51.87 35.27,-89.22 90.6,-89.22 57.06,0 92.68,35.28 86.11,105.47l-133.14 0z"/>
   <path class="fil0" d="M1147.89 275.21l0 -91.29c0,-22.48 -11.76,-42.88 -34.93,-42.88 -22.83,0 -36.31,20.41 -36.31,42.88l0 91.29 -42.19 0 0 -170.83 39.08 0 3.12 20.74c8.99,-17.29 28.7,-23.52 44.96,-23.52 20.4,0 40.81,8.3 50.49,31.82 15.22,-24.21 34.93,-31.13 57.06,-31.13 48.42,0 72.28,29.74 72.28,80.92l0 91.99 -42.19 0 0 -91.99c0,-22.48 -9.34,-41.5 -32.16,-41.5 -22.82,0 -37,19.71 -37,42.19l0 91.29 -42.19 0z"/>
   <path class="fil0" d="M1344.3 275.21l42.19 0 0 -171.18 -42.19 0 0 171.18zm45.99 -218.56c0,32.85 -49.8,32.85 -49.8,0 0,-32.85 49.8,-32.85 49.8,0z"/>
   <path class="fil0" d="M1484.01 56.65l0 48.42 47.03 0 0 36.31 -47.38 0 0 73.66c0,16.26 8.99,24.21 22.13,24.21 6.57,0 14.18,-2.07 20.4,-5.19l11.76 35.97c-12.11,4.84 -22.13,6.92 -34.93,7.27 -37,1.38 -61.21,-19.71 -61.21,-62.25l0 -73.66 -31.81 0 0 -36.31 31.81 0 0 -43.92 42.19 -4.49z"/>
   <polygon class="fil0" points="1604.34,275.21 1562.5,275.21 1562.5,33.48 1604.34,33.48 "/>
   <polygon class="fil0" points="1816.67,104.72 1712.59,346.44 1666.25,346.44 1698.06,272.44 1629.93,104.72 1679.04,104.72 1704.98,178.38 1721.23,226.45 1738.87,179.41 1769.99,104.72 "/>
   <path class="fil1" d="M310.25 291.72l0 0 -62.71 -71.41 -31.48 27.64 6.55 7.46c-72.23,-6.96 -92.35,-74.43 -94.74,-83.55l-57.62 14.54c1.05,4.21 11.16,42.15 42.11,76.28 21.9,24.16 57.08,49.29 109.82,52.58l-10.73 9.42 27.32 31.12 72.13 -63.34 -0.65 -0.74z"/>
   <path class="fil1" d="M241.56 5.76l-22 55.33c-1.24,-0.33 -2.51,-0.62 -3.83,-0.82 -3.63,-0.58 -7.38,-0.86 -11.08,-0.86 -21.96,0 -45.03,9.84 -62.3,27.11 -17.05,17.06 -25.13,38.57 -22.29,59.13 -28.35,3.01 -56.9,18.95 -56.9,18.95 -0.62,-2.72 -1.12,-5.48 -1.57,-8.24 -6.43,-40.01 7.7,-80.8 38.73,-111.82 33.46,-33.5 81.29,-49.94 124.84,-42.94 5.64,0.91 11.12,2.31 16.4,4.16z"/>
   <path class="fil1" d="M291.59 47.5c-10.63,-19.42 -28.72,-34.28 -50.03,-41.75l-22.01 55.35c8.73,2.34 16,7.78 19.92,14.99 2.59,4.81 4.87,12.59 0.7,22.39 -10.31,23.78 -38.08,34.35 -49.59,37.82 -12.71,3.86 -27.01,5.06 -42.13,6.33 -8.48,0.76 -17.02,1.45 -25.68,2.65 -0.88,0.13 -1.84,0.25 -2.72,0.38 -28.34,2.97 -56.86,18.91 -56.92,18.91 -18.03,10.12 -34.47,23.59 -46.37,40.67 -9.24,13.28 -14.17,27.45 -16.76,42.69l56.67 22.33c0.44,-10.81 2.03,-21.63 8.03,-30.68 8.29,-12.46 21.76,-20.74 35.04,-27.01 2.34,-1.08 4.81,-2.09 7.4,-3.03 13.78,-4.94 29.6,-6.27 46.3,-7.66 17.52,-1.52 35.67,-3.03 54.33,-8.73 41.05,-12.4 72.68,-38.27 86.91,-71.1 10.57,-24.48 9.43,-51.68 -3.1,-74.58z"/>
  </g>
 </g>
</svg>
