<?xml version="1.0" encoding="utf-8"?>
<!-- Generator: Adobe Illustrator 23.0.5, SVG Export Plug-In . SVG Version: 6.00 Build 0)  -->
<svg version="1.1" id="Layer_1" xmlns="http://www.w3.org/2000/svg" xmlns:xlink="http://www.w3.org/1999/xlink" x="0px" y="0px"
	 viewBox="0 0 348.2 250" style="enable-background:new 0 0 348.2 250;" xml:space="preserve">
<style type="text/css">
	.st0{fill:#00A651;}
	.st1{fill:#EE4B29;}
	.st2{fill:none;}
	.st3{clip-path:url(#SVGID_2_);fill:#00A651;}
	.st4{clip-path:url(#SVGID_4_);fill:#00A651;}
	.st5{clip-path:url(#SVGID_4_);fill:#FFFFFF;}
	.st6{clip-path:url(#SVGID_6_);fill:#00A651;}
	.st7{clip-path:url(#SVGID_8_);fill:#00A651;}
	.st8{clip-path:url(#SVGID_8_);fill:#FFFFFF;}
	.st9{clip-path:url(#SVGID_10_);fill:#00A651;}
	.st10{clip-path:url(#SVGID_12_);fill:#00A651;}
	.st11{clip-path:url(#SVGID_12_);fill:#FFFFFF;}
	.st12{clip-path:url(#SVGID_14_);fill:#00A651;}
	.st13{clip-path:url(#SVGID_16_);fill:#00A651;}
	.st14{clip-path:url(#SVGID_16_);fill:#FFFFFF;}
</style>
<g>
	<path class="st0" d="M199.88,2.68c-11.25,24.96-21.07,50.72-32.71,75.5c-6.43,13.68-18.53,42.37-36.8,42.37H93.71
		c2.55-8.45,6.43-16.8,9.96-24.99c7.39-17.11,14.85-34.48,22.75-51.35c6.13-13.07,18.32-41.53,35.96-41.53H199.88z"/>
	<path class="st1" d="M156.06,120.55c6.85-13.18,11.41-29.66,25.03-37.72c14.32-8.47,37.23-5.67,53.37-5.68
		c0.98,0.67,0.83,1.35,0.68,2.37c-0.33,2.17-6.36,13.87-7.86,16.63c-5.38,9.88-15.94,24.4-28.67,24.4H156.06z"/>
	<rect x="-172.82" y="-163.13" class="st2" width="674.61" height="674.61"/>
	<g>
		<defs>
			<rect id="SVGID_13_" x="-172.82" y="-163.13" width="674.61" height="674.61"/>
		</defs>
		<clipPath id="SVGID_2_">
			<use xlink:href="#SVGID_13_"  style="overflow:visible;"/>
		</clipPath>
		<path class="st3" d="M347.67,123.91v98.09l-59.86-18.16v-61.77L347.67,123.91z M292.21,199.41h27.73c0.55,0,6.92-2.07,7.88-2.48
			c20.15-8.57,20.57-38.23,0.71-47.51c-1.96-0.92-7.81-2.92-9.75-2.92h-26.56V199.41z"/>
		<path class="st3" d="M305.64,190.05v-34.17h9.63c2.1,0,6.68,1.79,8.42,3.07c7.54,5.56,7.91,20.74,1.23,26.99
			c-2.02,1.89-7.53,4.11-10.24,4.11H305.64z"/>
	</g>
	<polygon class="st1" points="15.22,192.79 29.77,192.79 29.77,204.01 1.9,204.01 1.9,142.48 15.22,142.48 	"/>
	<polygon class="st1" points="49.36,192.98 64.1,192.98 64.1,204.01 36.04,204.01 36.04,142.48 64.1,142.48 64.1,153.32 
		49.36,153.32 49.36,167.78 63.15,167.78 63.15,178.24 49.36,178.24 	"/>
	<rect x="72.37" y="171.11" class="st1" width="32.43" height="10.18"/>
	<polygon class="st0" points="145.22,151.14 126.87,194.12 145.22,194.12 145.22,204.01 112.98,204.01 112.98,195.84 131.43,152.47 
		113.55,152.47 113.55,142.48 145.22,142.48 	"/>
	<polygon class="st0" points="165.76,192.98 180.5,192.98 180.5,204.01 152.45,204.01 152.45,142.48 180.5,142.48 180.5,153.32 
		165.76,153.32 165.76,167.78 179.55,167.78 179.55,178.24 165.76,178.24 	"/>
	<g>
		<path class="st0" d="M2.63,242.44c0-0.58,0.02-1.12,0.07-1.61c0.05-0.5,0.12-1.02,0.22-1.58h2.25v1.2c0,1.45,0.16,2.57,0.47,3.34
			c0.31,0.77,0.8,1.16,1.45,1.16c1.12,0,1.68-0.77,1.68-2.32c0-0.6-0.09-1.23-0.27-1.9c-0.18-0.66-0.54-1.48-1.07-2.44l-3.03-5.36
			c-0.53-0.97-0.94-1.94-1.24-2.91s-0.44-2.05-0.44-3.24c0-1.79,0.39-3.26,1.18-4.4c0.79-1.14,1.88-1.72,3.28-1.72
			c1.13,0,2.01,0.29,2.66,0.86c0.64,0.57,1.1,1.3,1.36,2.17c0.27,0.88,0.4,1.77,0.4,2.69c0,0.58-0.03,1.11-0.1,1.6
			s-0.14,1.03-0.22,1.62H9.04v-1.3c0-1.42-0.16-2.52-0.48-3.29c-0.32-0.77-0.78-1.15-1.38-1.15c-0.54,0-0.96,0.21-1.24,0.64
			s-0.42,1-0.42,1.72c0,0.61,0.09,1.17,0.27,1.67c0.18,0.5,0.41,1.01,0.68,1.54l3.37,6.04c0.62,1.13,1.09,2.2,1.42,3.22
			s0.49,2.15,0.49,3.39c0,1.87-0.42,3.34-1.27,4.44c-0.84,1.09-1.97,1.64-3.37,1.64c-1.15,0-2.05-0.28-2.71-0.83
			c-0.65-0.55-1.11-1.27-1.38-2.14C2.76,244.32,2.63,243.4,2.63,242.44z"/>
		<path class="st0" d="M13.98,220.91h7.32v3.23h-4.42v8.08h3.46v3.23h-3.46v9.25h4.42v3.23h-7.32V220.91z"/>
		<path class="st0" d="M25.54,220.91h3.27l3.58,27.01h-2.91l-0.53-4.84H25.4l-0.5,4.84h-2.92L25.54,220.91z M28.61,239.99
			l-1.37-13.52h-0.12l-1.38,13.52H28.61z"/>
		<path class="st0" d="M34.12,220.91h3.6l1.92,10.93c0.2,1.15,0.36,2.25,0.47,3.31c0.11,1.06,0.22,2.05,0.31,2.96h0.09
			c0.1-0.92,0.21-1.91,0.32-2.96c0.11-1.06,0.26-2.16,0.46-3.31l1.89-10.93h3.6v27.01h-2.6v-8.93c0-1.83,0.02-3.56,0.05-5.17
			c0.03-1.61,0.08-3.03,0.12-4.24c0.05-1.21,0.09-2.13,0.13-2.77h-0.21l-2.89,17.63h-1.84l-2.91-17.63h-0.21
			c0.04,0.63,0.09,1.55,0.13,2.77c0.04,1.21,0.08,2.62,0.12,4.24c0.03,1.61,0.05,3.34,0.05,5.17v8.93h-2.6V220.91z"/>
		<path class="st0" d="M49.95,220.91h2.9v23.78h3.96v3.23h-6.86V220.91z"/>
		<path class="st0" d="M58.26,220.91h7.32v3.23h-4.42v8.08h3.46v3.23h-3.46v9.25h4.42v3.23h-7.32V220.91z"/>
		<path class="st0" d="M66.6,242.44c0-0.58,0.02-1.12,0.07-1.61c0.05-0.5,0.12-1.02,0.22-1.58h2.25v1.2c0,1.45,0.16,2.57,0.47,3.34
			c0.31,0.77,0.8,1.16,1.45,1.16c1.12,0,1.68-0.77,1.68-2.32c0-0.6-0.09-1.23-0.27-1.9c-0.18-0.66-0.54-1.48-1.07-2.44l-3.03-5.36
			c-0.53-0.97-0.94-1.94-1.24-2.91s-0.44-2.05-0.44-3.24c0-1.79,0.39-3.26,1.18-4.4c0.79-1.14,1.88-1.72,3.28-1.72
			c1.13,0,2.01,0.29,2.66,0.86c0.64,0.57,1.1,1.3,1.36,2.17c0.27,0.88,0.4,1.77,0.4,2.69c0,0.58-0.03,1.11-0.1,1.6
			s-0.14,1.03-0.22,1.62h-2.24v-1.3c0-1.42-0.16-2.52-0.48-3.29c-0.32-0.77-0.78-1.15-1.38-1.15c-0.54,0-0.96,0.21-1.24,0.64
			s-0.42,1-0.42,1.72c0,0.61,0.09,1.17,0.27,1.67c0.18,0.5,0.41,1.01,0.68,1.54l3.37,6.04c0.62,1.13,1.09,2.2,1.42,3.22
			s0.49,2.15,0.49,3.39c0,1.87-0.42,3.34-1.27,4.44c-0.84,1.09-1.97,1.64-3.37,1.64c-1.15,0-2.05-0.28-2.71-0.83
			c-0.65-0.55-1.11-1.27-1.38-2.14C66.73,244.32,66.6,243.4,66.6,242.44z"/>
		<path class="st0" d="M77.09,242.44c0-0.58,0.02-1.12,0.07-1.61c0.05-0.5,0.12-1.02,0.22-1.58h2.25v1.2c0,1.45,0.16,2.57,0.47,3.34
			c0.31,0.77,0.8,1.16,1.45,1.16c1.12,0,1.68-0.77,1.68-2.32c0-0.6-0.09-1.23-0.27-1.9c-0.18-0.66-0.54-1.48-1.07-2.44l-3.03-5.36
			c-0.53-0.97-0.94-1.94-1.24-2.91s-0.44-2.05-0.44-3.24c0-1.79,0.39-3.26,1.18-4.4c0.79-1.14,1.88-1.72,3.28-1.72
			c1.13,0,2.01,0.29,2.66,0.86c0.64,0.57,1.1,1.3,1.36,2.17c0.27,0.88,0.4,1.77,0.4,2.69c0,0.58-0.03,1.11-0.1,1.6
			s-0.14,1.03-0.22,1.62h-2.24v-1.3c0-1.42-0.16-2.52-0.48-3.29c-0.32-0.77-0.78-1.15-1.38-1.15c-0.54,0-0.96,0.21-1.24,0.64
			s-0.42,1-0.42,1.72c0,0.61,0.09,1.17,0.27,1.67c0.18,0.5,0.41,1.01,0.68,1.54l3.37,6.04c0.62,1.13,1.09,2.2,1.42,3.22
			s0.49,2.15,0.49,3.39c0,1.87-0.42,3.34-1.27,4.44c-0.84,1.09-1.97,1.64-3.37,1.64c-1.15,0-2.05-0.28-2.71-0.83
			c-0.65-0.55-1.11-1.27-1.38-2.14C77.23,244.32,77.09,243.4,77.09,242.44z"/>
		<path class="st0" d="M95.16,224.13h-3.08v-3.23h9.06v3.23h-3.07v23.78h-2.9V224.13z"/>
		<path class="st0" d="M102.71,220.91h3.15c0.44,0,0.93,0.04,1.46,0.11c0.53,0.07,1.06,0.24,1.58,0.5c0.52,0.26,1,0.66,1.44,1.22
			c0.43,0.55,0.78,1.31,1.05,2.26c0.26,0.95,0.4,2.16,0.4,3.63v0.68c0,4.05-0.86,6.65-2.59,7.81l3.15,10.8h-3.09l-2.63-10.1h-1v10.1
			h-2.9V220.91z M106,234.85c1.06,0,1.79-0.35,2.19-1.04c0.4-0.7,0.6-1.95,0.6-3.76v-2.13c0-1.39-0.19-2.41-0.57-3.07
			c-0.38-0.65-1.12-0.98-2.22-0.98h-0.38v10.99H106z"/>
		<path class="st0" d="M116.73,220.91h3.27l3.58,27.01h-2.91l-0.53-4.84h-3.54l-0.5,4.84h-2.92L116.73,220.91z M119.81,239.99
			l-1.37-13.52h-0.12l-1.38,13.52H119.81z"/>
		<path class="st0" d="M125.32,220.91h2.3l4.67,17.76h0.07c-0.03-0.56-0.07-1.18-0.12-1.87s-0.09-1.52-0.13-2.49
			s-0.06-2.15-0.06-3.54v-9.85h2.58v27.01h-2.32l-4.65-17.28h-0.09c0.04,0.63,0.08,1.32,0.12,2.07c0.04,0.75,0.09,1.69,0.12,2.83
			c0.04,1.14,0.06,2.62,0.06,4.44v7.94h-2.56V220.91z"/>
		<path class="st0" d="M136.94,242.44c0-0.58,0.02-1.12,0.07-1.61c0.05-0.5,0.12-1.02,0.22-1.58h2.25v1.2
			c0,1.45,0.16,2.57,0.47,3.34c0.31,0.77,0.8,1.16,1.45,1.16c1.12,0,1.68-0.77,1.68-2.32c0-0.6-0.09-1.23-0.27-1.9
			c-0.18-0.66-0.54-1.48-1.07-2.44l-3.03-5.36c-0.53-0.97-0.94-1.94-1.24-2.91s-0.44-2.05-0.44-3.24c0-1.79,0.39-3.26,1.18-4.4
			c0.79-1.14,1.88-1.72,3.28-1.72c1.13,0,2.01,0.29,2.66,0.86c0.64,0.57,1.1,1.3,1.36,2.17c0.27,0.88,0.4,1.77,0.4,2.69
			c0,0.58-0.03,1.11-0.1,1.6s-0.14,1.03-0.22,1.62h-2.24v-1.3c0-1.42-0.16-2.52-0.48-3.29c-0.32-0.77-0.78-1.15-1.38-1.15
			c-0.54,0-0.96,0.21-1.24,0.64s-0.42,1-0.42,1.72c0,0.61,0.09,1.17,0.27,1.67c0.18,0.5,0.41,1.01,0.68,1.54l3.37,6.04
			c0.62,1.13,1.09,2.2,1.42,3.22s0.49,2.15,0.49,3.39c0,1.87-0.42,3.34-1.27,4.44c-0.84,1.09-1.97,1.64-3.37,1.64
			c-1.15,0-2.05-0.28-2.71-0.83c-0.65-0.55-1.11-1.27-1.38-2.14C137.08,244.32,136.94,243.4,136.94,242.44z"/>
		<path class="st0" d="M148.29,220.91h7.32v3.35h-4.42v7.95h3.46v3.23h-3.46v12.48h-2.9V220.91z"/>
		<path class="st0" d="M157.18,220.91h7.32v3.23h-4.42v8.08h3.46v3.23h-3.46v9.25h4.42v3.23h-7.32V220.91z"/>
		<path class="st0" d="M166.26,220.91h3.15c0.44,0,0.93,0.04,1.46,0.11c0.53,0.07,1.06,0.24,1.58,0.5c0.52,0.26,1,0.66,1.44,1.22
			c0.43,0.55,0.78,1.31,1.05,2.26c0.26,0.95,0.4,2.16,0.4,3.63v0.68c0,4.05-0.86,6.65-2.59,7.81l3.15,10.8h-3.09l-2.63-10.1h-1v10.1
			h-2.9V220.91z M169.54,234.85c1.06,0,1.79-0.35,2.19-1.04c0.4-0.7,0.6-1.95,0.6-3.76v-2.13c0-1.39-0.19-2.41-0.57-3.07
			c-0.38-0.65-1.12-0.98-2.22-0.98h-0.38v10.99H169.54z"/>
		<path class="st0" d="M177.29,242.44c0-0.58,0.02-1.12,0.07-1.61c0.05-0.5,0.12-1.02,0.22-1.58h2.25v1.2
			c0,1.45,0.16,2.57,0.47,3.34c0.31,0.77,0.8,1.16,1.45,1.16c1.12,0,1.68-0.77,1.68-2.32c0-0.6-0.09-1.23-0.27-1.9
			c-0.18-0.66-0.54-1.48-1.07-2.44l-3.03-5.36c-0.53-0.97-0.94-1.94-1.24-2.91s-0.44-2.05-0.44-3.24c0-1.79,0.39-3.26,1.18-4.4
			c0.79-1.14,1.88-1.72,3.28-1.72c1.13,0,2.01,0.29,2.66,0.86c0.64,0.57,1.1,1.3,1.36,2.17c0.27,0.88,0.4,1.77,0.4,2.69
			c0,0.58-0.03,1.11-0.1,1.6s-0.14,1.03-0.22,1.62h-2.24v-1.3c0-1.42-0.16-2.52-0.48-3.29c-0.32-0.77-0.78-1.15-1.38-1.15
			c-0.54,0-0.96,0.21-1.24,0.64s-0.42,1-0.42,1.72c0,0.61,0.09,1.17,0.27,1.67c0.18,0.5,0.41,1.01,0.68,1.54l3.37,6.04
			c0.62,1.13,1.09,2.2,1.42,3.22s0.49,2.15,0.49,3.39c0,1.87-0.42,3.34-1.27,4.44c-0.84,1.09-1.97,1.64-3.37,1.64
			c-1.15,0-2.05-0.28-2.71-0.83c-0.65-0.55-1.11-1.27-1.38-2.14C177.42,244.32,177.29,243.4,177.29,242.44z"/>
		<path class="st0" d="M195.86,238.44l-3.74-17.53h2.93l2.22,13.03h0.13l2.22-13.03h2.91l-3.77,17.53v9.47h-2.9V238.44z"/>
		<path class="st0" d="M208.25,248.15c-0.46,0-0.97-0.1-1.52-0.28c-0.55-0.19-1.07-0.58-1.56-1.19c-0.49-0.6-0.9-1.5-1.21-2.71
			c-0.31-1.21-0.47-2.82-0.47-4.85v-9.57c0-1.62,0.11-2.97,0.32-4.06s0.49-1.94,0.84-2.59c0.35-0.65,0.73-1.13,1.15-1.45
			c0.42-0.32,0.85-0.53,1.27-0.63c0.43-0.1,0.82-0.15,1.18-0.15c0.34,0,0.73,0.05,1.15,0.14c0.42,0.1,0.84,0.3,1.26,0.61
			c0.42,0.31,0.8,0.79,1.15,1.43s0.63,1.51,0.84,2.59c0.21,1.09,0.32,2.46,0.32,4.11v9.57c0,2-0.16,3.6-0.49,4.81
			s-0.74,2.11-1.24,2.71c-0.5,0.61-1.02,1.01-1.55,1.21C209.14,248.05,208.67,248.15,208.25,248.15z M208.25,244.94
			c0.58,0,1-0.31,1.28-0.92s0.42-1.75,0.42-3.43v-12.17c0-1.73-0.14-2.92-0.42-3.57s-0.7-0.97-1.28-0.97
			c-0.59,0-1.03,0.32-1.31,0.97c-0.28,0.65-0.42,1.84-0.42,3.57v12.17c0,1.68,0.14,2.82,0.42,3.43
			C207.22,244.63,207.66,244.94,208.25,244.94z"/>
		<path class="st0" d="M220.36,248.15c-0.33,0-0.7-0.04-1.1-0.13c-0.41-0.09-0.81-0.28-1.22-0.58c-0.4-0.3-0.77-0.76-1.11-1.38
			c-0.34-0.62-0.61-1.45-0.81-2.49s-0.31-2.36-0.31-3.95v-18.7h2.9v19.67c0,1.68,0.13,2.82,0.4,3.44c0.26,0.62,0.68,0.92,1.25,0.92
			c0.58,0,1-0.31,1.26-0.92c0.26-0.62,0.4-1.76,0.4-3.44v-19.67h2.89v18.7c0,1.59-0.1,2.91-0.31,3.95
			c-0.21,1.04-0.48,1.87-0.81,2.49s-0.71,1.08-1.11,1.38c-0.4,0.3-0.81,0.5-1.21,0.58C221.06,248.1,220.69,248.15,220.36,248.15z"/>
		<path class="st0" d="M237.42,248.15c-0.46,0-0.97-0.1-1.52-0.28c-0.55-0.19-1.07-0.58-1.56-1.19c-0.49-0.6-0.9-1.5-1.21-2.71
			c-0.31-1.21-0.47-2.82-0.47-4.85v-9.57c0-1.62,0.11-2.97,0.32-4.06s0.49-1.94,0.84-2.59s0.73-1.13,1.15-1.45
			c0.42-0.32,0.84-0.53,1.27-0.63c0.42-0.1,0.81-0.15,1.17-0.15c0.99,0,1.77,0.26,2.34,0.77s0.99,1.21,1.24,2.08
			s0.38,1.83,0.38,2.87c0,0.58-0.03,1.11-0.1,1.6s-0.14,1.03-0.22,1.62h-2.24v-1.3c0-2.96-0.49-4.44-1.48-4.44
			c-0.53,0-0.94,0.32-1.22,0.97s-0.42,1.84-0.42,3.57v12.17c0,1.68,0.14,2.82,0.42,3.43s0.72,0.92,1.31,0.92
			c0.41,0,0.75-0.25,1.02-0.73c0.27-0.49,0.4-1.28,0.4-2.36v-2.56h2.54v2.5c0,2.16-0.34,3.76-1.02,4.81S238.7,248.15,237.42,248.15z
			"/>
		<path class="st0" d="M245.58,220.91h3.27l3.58,27.01h-2.91l-0.53-4.84h-3.54l-0.5,4.84h-2.92L245.58,220.91z M248.65,239.99
			l-1.37-13.52h-0.12l-1.38,13.52H248.65z"/>
		<path class="st0" d="M254.16,220.91h2.3l4.67,17.76h0.07c-0.03-0.56-0.07-1.18-0.12-1.87s-0.09-1.52-0.13-2.49
			s-0.06-2.15-0.06-3.54v-9.85h2.58v27.01h-2.32l-4.65-17.28h-0.09c0.04,0.63,0.08,1.32,0.12,2.07c0.04,0.75,0.09,1.69,0.12,2.83
			c0.04,1.14,0.06,2.62,0.06,4.44v7.94h-2.56V220.91z"/>
		<path class="st0" d="M273.36,224.13h-3.08v-3.23h9.06v3.23h-3.07v23.78h-2.9V224.13z"/>
		<path class="st0" d="M280.91,220.91h3.15c0.44,0,0.93,0.04,1.46,0.11c0.53,0.07,1.06,0.24,1.58,0.5c0.52,0.26,1,0.66,1.44,1.22
			c0.43,0.55,0.78,1.31,1.05,2.26c0.26,0.95,0.4,2.16,0.4,3.63v0.68c0,4.05-0.86,6.65-2.59,7.81l3.15,10.8h-3.09l-2.63-10.1h-1v10.1
			h-2.9V220.91z M284.2,234.85c1.06,0,1.79-0.35,2.19-1.04c0.4-0.7,0.6-1.95,0.6-3.76v-2.13c0-1.39-0.19-2.41-0.57-3.07
			c-0.38-0.65-1.12-0.98-2.22-0.98h-0.38v10.99H284.2z"/>
		<path class="st0" d="M297.07,248.15c-0.33,0-0.7-0.04-1.1-0.13c-0.41-0.09-0.81-0.28-1.22-0.58c-0.4-0.3-0.77-0.76-1.11-1.38
			c-0.34-0.62-0.61-1.45-0.81-2.49s-0.31-2.36-0.31-3.95v-18.7h2.9v19.67c0,1.68,0.13,2.82,0.4,3.44c0.26,0.62,0.68,0.92,1.25,0.92
			c0.58,0,1-0.31,1.26-0.92c0.26-0.62,0.4-1.76,0.4-3.44v-19.67h2.89v18.7c0,1.59-0.1,2.91-0.31,3.95
			c-0.21,1.04-0.48,1.87-0.81,2.49s-0.71,1.08-1.11,1.38c-0.4,0.3-0.81,0.5-1.21,0.58C297.78,248.1,297.41,248.15,297.07,248.15z"/>
		<path class="st0" d="M303.94,242.44c0-0.58,0.02-1.12,0.07-1.61c0.05-0.5,0.12-1.02,0.22-1.58h2.25v1.2
			c0,1.45,0.16,2.57,0.47,3.34c0.31,0.77,0.8,1.16,1.45,1.16c1.12,0,1.68-0.77,1.68-2.32c0-0.6-0.09-1.23-0.27-1.9
			c-0.18-0.66-0.54-1.48-1.07-2.44l-3.03-5.36c-0.53-0.97-0.94-1.94-1.24-2.91s-0.44-2.05-0.44-3.24c0-1.79,0.39-3.26,1.18-4.4
			c0.79-1.14,1.88-1.72,3.28-1.72c1.13,0,2.01,0.29,2.66,0.86c0.64,0.57,1.1,1.3,1.36,2.17c0.27,0.88,0.4,1.77,0.4,2.69
			c0,0.58-0.03,1.11-0.1,1.6s-0.14,1.03-0.22,1.62h-2.24v-1.3c0-1.42-0.16-2.52-0.48-3.29c-0.32-0.77-0.78-1.15-1.38-1.15
			c-0.54,0-0.96,0.21-1.24,0.64s-0.42,1-0.42,1.72c0,0.61,0.09,1.17,0.27,1.67c0.18,0.5,0.41,1.01,0.68,1.54l3.37,6.04
			c0.62,1.13,1.09,2.2,1.42,3.22s0.49,2.15,0.49,3.39c0,1.87-0.42,3.34-1.27,4.44c-0.84,1.09-1.97,1.64-3.37,1.64
			c-1.15,0-2.05-0.28-2.71-0.83c-0.65-0.55-1.11-1.27-1.38-2.14C304.07,244.32,303.94,243.4,303.94,242.44z"/>
		<path class="st0" d="M316.96,224.13h-3.08v-3.23h9.06v3.23h-3.07v23.78h-2.9V224.13z"/>
	</g>
	<g>
		<defs>
			<rect id="SVGID_15_" x="-172.82" y="-163.13" width="674.61" height="674.61"/>
		</defs>
		<clipPath id="SVGID_4_">
			<use xlink:href="#SVGID_15_"  style="overflow:visible;"/>
		</clipPath>
		<path class="st4" d="M341.48,150.19c-0.39-0.65-21-10.04-22.3-10.04c-1.3,0-15.52,1.43-15.52,1.43l-10.3,0.9l-4.43,7.71
			c0,0,4.43,32.48,4.43,34.57c0,2.09,0.52,6,0.65,7.96c0.13,1.96,3.52,8.48,3.52,8.48l6.13,2.82c0,0,7.43,4.35,10.83,5
			c3.39,0.65,7.83-0.13,7.83-0.13s7.3-0.65,9.91-0.78c2.61-0.13,5.74-1.04,5.74-1.04s2.48-2.48,2.48-2.87
			c0-0.39,0.13-11.35,1.04-12.13c0.91-0.78,3.65-9.78,3.65-10.83c0-1.04-0.39-5.61,0-6.52c0.39-0.91-0.26-8.09,0-9.91
			c0.26-1.83-3-14.87-3-14.87L341.48,150.19z"/>
		<path class="st4" d="M201.43,204.01h-13.31v-49.93c0-8.37,3.93-12.55,11.79-12.55h7.04c4.63,0,7.92,1.52,9.89,4.57
			c1.84-3.04,5.14-4.57,9.89-4.57h7.04c7.86,0,11.79,4.18,11.79,12.55v49.93h-13.32v-51.07c0-0.51-0.18-0.95-0.52-1.33
			c-0.35-0.38-0.78-0.57-1.28-0.57h-5.14c-0.51,0-0.94,0.19-1.28,0.57c-0.35,0.38-0.52,0.83-0.52,1.33v51.07h-13.31v-51.07
			c0-0.51-0.18-0.95-0.52-1.33c-0.35-0.38-0.78-0.57-1.28-0.57h-5.13c-0.51,0-0.94,0.19-1.29,0.57c-0.35,0.38-0.52,0.83-0.52,1.33
			V204.01z"/>
		<polygon class="st4" points="268,192.98 282.74,192.98 282.74,204.01 254.68,204.01 254.68,142.48 282.74,142.48 282.74,153.32 
			268,153.32 268,167.78 281.79,167.78 281.79,178.24 268,178.24 		"/>
		<path class="st5" d="M314.88,142.48c7.86,0,11.79,4.18,11.79,12.55v36.42c0,8.37-3.93,12.55-11.79,12.55h-24.44v-61.53H314.88z
			 M313.36,192.98v-39.56c0-0.51-0.18-0.95-0.52-1.33c-0.35-0.38-0.78-0.57-1.28-0.57h-7.8v43.37h7.8c0.51,0,0.93-0.19,1.28-0.57
			C313.19,193.93,313.36,193.49,313.36,192.98"/>
	</g>
</g>
</svg>
