<svg width="175" height="58" viewBox="0 0 175 58" fill="none" xmlns="http://www.w3.org/2000/svg">
<g clip-path="url(#clip0_96_396)">
<path d="M100.018 25.5077C100.018 21.8989 100.018 18.283 100.018 14.6742C100.018 14.2717 100.018 13.8691 100.039 13.4736C100.074 12.9087 100.427 12.5838 101.02 12.5485C101.07 12.5485 101.119 12.5414 101.168 12.5414C102.821 12.5414 104.48 12.5414 106.132 12.5414C106.231 12.5414 106.33 12.5485 106.436 12.5555C106.873 12.5979 107.184 12.8027 107.339 13.2265C107.424 13.4595 107.488 13.7067 107.608 13.9186C107.812 14.2717 108.335 14.3847 108.667 14.1587C108.871 14.0174 109.069 13.8621 109.267 13.7067C111.152 12.2448 113.305 11.7363 115.635 12.0047C118.064 12.2872 120.14 13.3112 121.764 15.1756C121.827 15.2533 121.891 15.331 121.961 15.4016C122.442 15.896 122.886 15.896 123.381 15.3946C123.522 15.2533 123.649 15.0909 123.783 14.9496C125.209 13.4454 126.974 12.5626 129.001 12.1742C130.392 11.9129 131.776 11.8564 133.181 12.1389C136.485 12.8027 138.772 14.7025 140.128 17.7534C140.686 19.0034 140.919 20.3381 140.989 21.6941C141.011 22.0966 140.996 22.4992 140.996 22.8947C140.996 27.4074 140.996 31.9202 140.996 36.433C140.996 36.8355 141.004 37.2381 140.982 37.6336C140.954 38.3115 140.615 38.6576 139.966 38.6929C139.719 38.707 139.464 38.7 139.217 38.7C138.017 38.7 136.81 38.7 135.609 38.7C135.362 38.7 135.108 38.7 134.861 38.6858C134.282 38.6576 133.908 38.3115 133.88 37.7607C133.858 37.3581 133.865 36.9556 133.865 36.5601C133.865 32.4499 133.865 28.3326 133.865 24.2224C133.865 23.6715 133.872 23.1136 133.823 22.5698C133.724 21.4963 133.336 20.5218 132.63 19.7025C131.839 18.7844 130.829 18.283 129.615 18.2124C128.803 18.163 128.012 18.2336 127.25 18.5373C125.449 19.2505 124.447 20.5782 124.235 22.4921C124.186 22.937 124.207 23.3961 124.207 23.8481C124.207 28.1137 124.207 32.3722 124.207 36.6378C124.207 37.0898 124.193 37.5418 124.164 37.9867C124.143 38.3115 123.79 38.6223 123.451 38.6647C123.303 38.6788 123.155 38.7 122.999 38.7C121.397 38.7 119.794 38.7 118.184 38.7C118.085 38.7 117.986 38.6929 117.881 38.6788C117.485 38.6435 117.132 38.3045 117.076 37.9019C117.054 37.7536 117.04 37.6053 117.033 37.457C117.026 37.0545 117.026 36.6519 117.026 36.2564C117.026 32.2451 117.026 28.2337 117.026 24.2224C117.026 23.6715 117.012 23.1207 116.984 22.5698C116.934 21.6446 116.603 20.8113 116.08 20.0556C115.289 18.9045 114.167 18.3113 112.79 18.2265C112.034 18.1771 111.293 18.2548 110.566 18.5019C108.709 19.1446 107.516 20.6771 107.382 22.6545C107.353 23.0571 107.368 23.4596 107.368 23.8551C107.368 28.1207 107.368 32.3793 107.368 36.6449C107.368 37.0968 107.353 37.5488 107.325 37.9937C107.304 38.3257 106.965 38.6364 106.626 38.6717C106.478 38.6858 106.33 38.707 106.174 38.707C104.522 38.707 102.863 38.7141 101.211 38.707C100.314 38.7 100.046 38.4245 100.018 37.5418C100.003 37.1392 100.011 36.7367 100.011 36.3412C100.018 32.7324 100.018 29.1236 100.018 25.5077Z" fill="#EF4C26"/>
<path d="M96.0707 26.327C95.9648 25.0275 95.8801 23.7281 95.5765 22.4498C95.1528 20.6842 94.5386 18.9964 93.5572 17.4568C92.0462 15.0768 89.9563 13.4243 87.2663 12.5909C84.2586 11.6658 81.2367 11.6869 78.2501 12.7322C73.915 14.2576 71.112 17.2661 69.827 21.6588C69.128 24.06 69.1421 26.5106 69.6858 28.9541C70.8155 34.0389 75.0235 38.467 81.4485 39.2579C83.2419 39.4839 85.0564 39.3921 86.8286 38.9755C88.6925 38.5376 90.4788 37.8879 92.1027 36.8497C92.5193 36.5814 92.9147 36.2636 93.2959 35.9387C93.5642 35.7127 93.6278 35.1053 93.4301 34.8158C93.2959 34.611 93.1335 34.4132 92.9641 34.2296C92.3428 33.5728 91.7073 32.9302 91.079 32.2875C90.8671 32.0756 90.6624 31.8567 90.4294 31.666C90.0834 31.3835 89.681 31.3694 89.2997 31.5601C88.9396 31.7367 88.6149 31.9768 88.2689 32.1745C86.532 33.1562 84.6822 33.6788 82.6629 33.6082C79.987 33.5163 77.6147 31.7437 76.6898 28.8906C76.5203 28.368 76.9298 27.7253 77.4805 27.6476C77.8265 27.5982 78.1795 27.5982 78.5325 27.5911C81.1378 27.5911 83.7502 27.5911 86.3555 27.5911C88.9114 27.5911 91.4673 27.5911 94.0302 27.5911C94.4327 27.5911 94.8351 27.5841 95.2305 27.5558C95.5553 27.5346 95.9012 27.2309 95.9789 26.9061C96.0354 26.7295 96.0848 26.5247 96.0707 26.327ZM87.9653 23.1207C87.6264 23.1913 87.2734 23.2196 86.9274 23.2196C85.5294 23.2337 84.1315 23.2266 82.7264 23.2266C81.3214 23.2266 79.9234 23.2337 78.5255 23.2196C78.1795 23.2196 77.8265 23.1843 77.4876 23.1137C77.0004 23.0148 76.6968 22.4216 76.8522 21.9343C76.8945 21.793 76.9298 21.6447 76.9934 21.5105C78.1301 19.2224 79.9658 17.8735 82.5146 17.6969C84.9011 17.5345 86.8003 18.4808 88.043 20.5854C88.2971 21.0091 88.4737 21.4823 88.6431 21.9554C88.8126 22.4427 88.4666 23.0218 87.9653 23.1207Z" fill="#EF4C26"/>
<path d="M35.7747 39.3849C32.6398 39.3637 29.3496 38.4456 26.3066 36.6518C25.9606 36.447 25.6288 36.221 25.3111 35.9809C24.9298 35.6843 24.8027 35.1617 25.0498 34.7662C25.7064 33.6998 26.3843 32.6475 27.0762 31.6023C27.3374 31.2068 27.8811 31.0938 28.2906 31.3057C28.6436 31.4893 28.9896 31.7012 29.3426 31.8919C30.8465 32.7111 32.4209 33.3326 34.1013 33.7069C35.2875 33.9682 36.4807 34.0035 37.688 33.9046C38.2458 33.8552 38.7683 33.6786 39.2484 33.4032C40.0956 32.9159 40.4557 32.0543 40.2369 31.0938C40.1663 30.7901 39.9968 30.543 39.7921 30.324C39.4461 29.9568 39.0154 29.6814 38.5424 29.5048C37.8434 29.2365 37.1303 28.9822 36.4101 28.7774C35.3016 28.4596 34.1861 28.1842 33.0705 27.8876C32.1526 27.6404 31.2489 27.3296 30.3734 26.9483C29.5403 26.5881 28.7566 26.1573 28.0435 25.5853C26.7655 24.5612 26.0101 23.2265 25.8406 21.6092C25.4876 18.2123 26.702 15.5216 29.6109 13.6571C30.7688 12.9156 32.0467 12.4777 33.3882 12.2376C34.9274 11.9693 36.4666 11.934 38.0269 12.1317C40.5475 12.4566 42.8916 13.2758 45.1086 14.4975C45.2851 14.5964 45.4475 14.7094 45.6099 14.8295C45.9135 15.0555 46.0547 15.5639 45.9205 15.9171C45.8852 16.0089 45.8499 16.1077 45.8005 16.1925C45.2498 17.1459 44.7061 18.1064 44.1483 19.0527C44.0777 19.1798 43.9718 19.2999 43.8518 19.3846C43.5976 19.5612 43.3082 19.6812 43.0046 19.5541C42.595 19.3776 42.1926 19.1728 41.7902 18.9679C40.3992 18.2547 38.9448 17.7179 37.4056 17.4496C36.3607 17.273 35.3016 17.2306 34.292 17.6402C33.9248 17.7886 33.5789 18.0004 33.2611 18.2335C32.9293 18.4736 32.7528 18.8338 32.6186 19.2222C32.428 19.7872 32.5621 20.5852 33.2753 21.0654C33.7836 21.4044 34.3484 21.6092 34.9203 21.7928C35.6829 22.04 36.4595 22.2378 37.2291 22.4567C38.2882 22.7604 39.3543 23.0358 40.4063 23.3677C41.3665 23.6643 42.2914 24.0457 43.1669 24.533C43.9154 24.9497 44.6143 25.437 45.2074 26.0514C46.097 26.9765 46.6407 28.0782 46.909 29.3424C47.1702 30.5995 47.1137 31.8424 46.8031 33.0642C46.4359 34.5049 45.6875 35.7337 44.572 36.7366C43.5906 37.6264 42.4538 38.2549 41.2041 38.6645C39.3402 39.286 38.3376 39.3849 35.7747 39.3849Z" fill="#00A44F"/>
<path d="M161.26 25.635C161.26 23.7282 161.26 21.8285 161.26 19.9217C161.26 19.0954 161.105 18.5163 159.947 18.5445C159.495 18.5586 159.043 18.5445 158.598 18.5233C158.139 18.5021 157.751 18.1208 157.695 17.6688C157.673 17.4711 157.659 17.2662 157.659 17.0685C157.659 16.0657 157.659 15.0628 157.659 14.06C157.659 13.8622 157.666 13.6574 157.688 13.4597C157.73 13.0218 158.146 12.591 158.577 12.5699C159.177 12.5345 159.777 12.5487 160.378 12.5204C160.872 12.4992 161.211 12.1532 161.239 11.6518C161.26 11.3057 161.26 10.9526 161.26 10.5995C161.26 9.44834 161.26 8.2972 161.26 7.14605C161.26 6.84237 161.26 6.54576 161.288 6.24208C161.324 5.81835 161.747 5.4158 162.192 5.3593C162.34 5.34518 162.489 5.33105 162.644 5.33105C164.098 5.33105 165.546 5.33105 167 5.33105C167.149 5.33105 167.304 5.33812 167.452 5.35224C167.996 5.40168 168.398 5.79716 168.419 6.31977C168.441 6.92006 168.434 7.52035 168.441 8.12064C168.441 9.12348 168.441 10.1263 168.448 11.1292C168.448 11.3763 168.476 11.6306 168.511 11.8778C168.547 12.1249 168.878 12.4427 169.133 12.471C169.38 12.4992 169.627 12.5275 169.881 12.5275C170.679 12.5345 171.484 12.5275 172.281 12.5345C172.585 12.5345 172.882 12.5345 173.185 12.5557C173.701 12.5981 174.082 13.0148 174.124 13.5586C174.131 13.608 174.131 13.6574 174.131 13.7069C174.131 14.9075 174.131 16.108 174.131 17.3157C174.131 17.464 174.11 17.6123 174.082 17.7606C174.018 18.1349 173.637 18.5021 173.249 18.5092C172.451 18.5304 171.646 18.5233 170.848 18.5375C170.347 18.5445 169.846 18.5375 169.344 18.5657C168.885 18.594 168.49 18.9965 168.469 19.4414C168.448 19.7945 168.448 20.1406 168.448 20.4937C168.448 23.5022 168.448 26.5037 168.448 29.5122C168.448 29.8159 168.426 30.1195 168.469 30.4161C168.511 30.7622 168.575 31.1082 168.688 31.4402C169.076 32.6125 170.121 33.2693 171.385 33.0786C171.83 33.008 172.26 32.8809 172.698 32.782C173.086 32.6902 173.531 32.8879 173.722 33.234C173.771 33.3187 173.821 33.4105 173.856 33.5023C174.223 34.4911 174.59 35.4727 174.943 36.4614C175.084 36.8569 174.957 37.2665 174.619 37.5349C174.386 37.7185 174.138 37.8951 173.877 38.0504C171.999 39.1521 169.966 39.5971 167.812 39.2793C164.381 38.7637 162.277 36.4967 161.55 33.5871C161.345 32.7608 161.253 31.9133 161.267 31.0588C161.274 29.2438 161.26 27.4429 161.26 25.635Z" fill="#EF4C26"/>
<path d="M51.1945 25.7622C51.1945 22.2028 51.1945 18.6434 51.1945 15.0911C51.1945 14.738 51.1945 14.392 51.1945 14.0389C51.2016 13.0925 51.6464 12.5346 52.6561 12.5487C53.1079 12.5558 53.5598 12.5487 54.0117 12.5487C55.0142 12.5487 56.0168 12.5417 57.0194 12.5558C57.2665 12.5558 57.5278 12.5628 57.7608 12.6264C58.1703 12.7394 58.4739 13.0007 58.5586 13.4386C58.608 13.6787 58.601 13.9329 58.6363 14.1872C58.6786 14.5615 58.8834 14.8298 59.2011 15.0276C59.5259 15.2253 59.8718 15.2536 60.1896 15.0417C60.4367 14.8793 60.6697 14.6815 60.8956 14.4838C62.3924 13.1349 64.1434 12.3439 66.1345 12.0755C66.2333 12.0614 66.3321 12.0473 66.431 12.0402C66.9746 12.019 67.5112 12.4922 67.5677 13.036C67.5889 13.2338 67.596 13.4386 67.596 13.6363C67.596 14.6391 67.596 15.642 67.596 16.6448C67.596 16.7931 67.596 16.9485 67.5818 17.0968C67.5395 17.7042 67.1582 18.135 66.5793 18.2338C65.9368 18.3398 65.2872 18.4104 64.6588 18.5657C63.4303 18.8624 62.2936 19.3779 61.3051 20.1901C59.6247 21.5743 58.8128 23.4105 58.6292 25.5503C58.5868 26.0517 58.601 26.5532 58.601 27.0546C58.601 30.2608 58.601 33.4671 58.601 36.6733C58.601 37.0759 58.5939 37.4784 58.5657 37.8739C58.5303 38.3047 58.1067 38.7002 57.6619 38.7426C57.5136 38.7567 57.3654 38.7638 57.21 38.7638C55.6567 38.7638 54.1034 38.7638 52.5501 38.7638C52.4019 38.7638 52.2536 38.7426 52.0983 38.7285C51.717 38.679 51.3357 38.3471 51.2793 37.9516C51.2157 37.5067 51.1875 37.0547 51.1875 36.6098C51.1804 33.7566 51.1804 30.8964 51.1804 28.0433C51.1945 27.2664 51.1945 26.5108 51.1945 25.7622Z" fill="#EF4C26"/>
<path d="M146.179 25.5925C146.179 21.9343 146.179 18.2831 146.179 14.6248C146.179 14.2223 146.186 13.8268 146.214 13.4243C146.243 13.0641 146.638 12.6615 146.998 12.605C147.196 12.5697 147.393 12.5485 147.591 12.5485C149.095 12.5415 150.592 12.5485 152.096 12.5485C152.194 12.5485 152.293 12.5485 152.399 12.5556C153.162 12.5909 153.571 13.0076 153.607 13.7986C153.621 14.0952 153.614 14.3989 153.614 14.7025C153.614 22.012 153.614 29.3214 153.614 36.6379C153.614 36.991 153.621 37.337 153.592 37.6901C153.55 38.3257 153.162 38.7354 152.547 38.7424C150.747 38.7565 148.947 38.7565 147.139 38.7354C146.588 38.7283 146.214 38.3257 146.186 37.7749C146.165 37.3723 146.172 36.9769 146.172 36.5743C146.179 32.9019 146.179 29.2508 146.179 25.5925Z" fill="#EF4C26"/>
<path d="M1.16427 30.9453C1.19251 30.3733 1.21369 29.8718 1.24193 29.3704C1.24899 29.2716 1.28429 29.1727 1.30547 29.0809C1.33372 28.9326 1.50317 28.8054 1.63026 28.8478C1.72204 28.8761 1.84207 28.9184 1.87737 28.9891C2.04682 29.3492 2.18803 29.7235 2.35042 30.0908C3.12707 31.8634 4.22144 33.403 5.68295 34.6742C6.87617 35.7053 8.22472 36.4539 9.79214 36.7434C11.4231 37.0471 12.9835 36.8352 14.4662 36.1007C15.0098 35.8324 15.497 35.4793 15.9135 35.0414C16.6549 34.2646 16.9302 33.3394 16.7608 32.273C16.6761 31.7645 16.436 31.3267 16.1042 30.9382C15.7441 30.5145 15.2993 30.1896 14.8051 29.9354C14.092 29.5611 13.3365 29.2998 12.5669 29.0597C11.3666 28.6854 10.1452 28.417 8.9237 28.1557C7.59634 27.8732 6.29721 27.506 5.04751 26.9763C4.30617 26.6656 3.59306 26.2984 2.92938 25.8464C2.30806 25.4156 1.73616 24.9283 1.27723 24.328C0.211105 22.9438 -0.191341 21.3901 0.0840167 19.6669C0.232286 18.7206 0.486462 17.8095 1.11484 17.0468C1.13602 17.0186 1.20663 17.0256 1.24899 17.0327C1.28429 17.0397 1.34784 17.068 1.34784 17.0962C1.3549 17.4494 1.34078 17.7954 1.34784 18.1485C1.38314 20.5638 2.50575 22.3576 4.5321 23.5935C5.16754 23.9819 5.87359 24.2785 6.58669 24.5045C8.0129 24.9636 9.46735 25.352 10.9147 25.7616C12.0232 26.0794 13.1458 26.3478 14.2402 26.6938C15.3416 27.0399 16.3937 27.506 17.3609 28.1487C18.2647 28.756 18.9707 29.5329 19.2673 30.5851C19.9098 32.8521 19.6556 34.9567 17.9752 36.7434C17.0573 37.718 15.9277 38.3465 14.6497 38.7067C12.9482 39.1799 11.2042 39.3635 9.43911 39.2223C6.87617 39.0175 4.39795 38.4172 1.99034 37.5203C1.89855 37.4849 1.78559 37.4567 1.72204 37.3931C1.62319 37.2943 1.50317 37.1671 1.48199 37.04C1.43962 36.694 1.43962 36.3409 1.43256 35.9877C1.41138 34.8366 1.3902 33.6855 1.24193 32.5343C1.18545 31.9835 1.19251 31.4255 1.16427 30.9453Z" fill="#00A44F"/>
<path d="M149.956 1.00175C152.215 0.952317 154.009 2.97918 153.945 5.02017C153.875 7.27303 151.996 8.98915 149.857 8.9609C147.739 8.93265 145.889 7.19534 145.875 4.9213C145.861 3.00743 147.548 0.93113 149.956 1.00175Z" fill="#EF4C27"/>
<path d="M148.283 57.3515C148.226 57.1114 148.149 56.8783 148.043 56.6523C147.605 55.6989 147.16 54.7526 146.716 53.7992C146.617 53.5873 146.694 53.4108 146.828 53.2554C146.92 53.1424 147.054 53.0576 147.167 52.9588C147.711 52.4715 148.001 51.8359 148.156 51.1438C148.375 50.1409 148.311 49.1522 147.916 48.1988C147.64 47.5279 147.174 47.0194 146.532 46.6804C145.995 46.3979 145.423 46.2143 144.809 46.2143C143.913 46.2073 143.009 46.2002 142.112 46.2002C141.865 46.2002 141.611 46.2002 141.371 46.2567C141.258 46.2849 141.117 46.4333 141.088 46.5462C141.032 46.7864 141.032 47.0406 141.032 47.2878C141.032 48.785 141.032 50.2892 141.032 51.7864C141.032 53.3401 141.032 54.8868 141.032 56.4405C141.032 56.7371 141.039 57.0407 141.081 57.3374C141.102 57.4715 141.194 57.6198 141.378 57.6198C141.625 57.6269 141.872 57.634 142.119 57.6269C142.317 57.6198 142.486 57.4362 142.493 57.2385C142.507 56.8359 142.515 56.4405 142.522 56.0379C142.55 53.4814 142.218 54.0252 144.689 53.898C145.035 53.8839 145.247 54.0605 145.388 54.3571C145.769 55.1692 146.151 55.9885 146.539 56.7936C146.645 57.0196 146.765 57.2385 146.892 57.4504C146.941 57.528 147.047 57.5845 147.139 57.6057C147.485 57.6763 147.831 57.7117 148.163 57.5704C148.226 57.5492 148.297 57.415 148.283 57.3515ZM145.607 51.9701C145.325 52.0689 145.028 52.1678 144.739 52.1819C144.138 52.2102 143.538 52.189 142.938 52.1819C142.755 52.1819 142.557 51.9842 142.557 51.7935C142.55 50.6424 142.55 49.4912 142.557 48.3401C142.557 48.1423 142.74 47.9658 142.938 47.9516C143.284 47.9304 143.637 47.9163 144.054 47.8951C144.435 47.9304 144.887 47.9516 145.332 48.0293C145.918 48.1282 146.32 48.4813 146.553 49.0251C146.828 49.6536 146.821 50.2892 146.617 50.9319C146.44 51.4333 146.115 51.8006 145.607 51.9701Z" fill="#EF4E28"/>
<path d="M90.7758 49.2443C90.5216 48.4745 90.1121 47.7894 89.512 47.2315C88.9118 46.6736 88.2199 46.2569 87.3868 46.2287C86.2359 46.1863 85.0851 46.2216 83.9413 46.2357C83.7577 46.2357 83.5812 46.4335 83.5741 46.6312C83.56 46.9843 83.5459 47.3304 83.5459 47.6835C83.5459 49.0818 83.5459 50.4872 83.5459 51.8855C83.5459 52.4364 83.5459 52.9872 83.5459 53.5381C83.5459 54.6892 83.5459 55.8404 83.553 56.9915C83.553 57.3941 83.6377 57.6625 84.146 57.6625C85.0992 57.6625 86.0453 57.6695 86.9985 57.6625C88.1211 57.6625 89.0248 57.1752 89.7662 56.363C90.2463 55.8404 90.5852 55.226 90.804 54.5551C91.3759 52.7824 91.3618 51.0098 90.7758 49.2443ZM89.5685 53.2839C89.4273 53.976 89.1307 54.6116 88.6506 55.1412C88.234 55.6003 87.7257 55.904 87.0832 55.904C86.5395 55.904 85.9888 55.8969 85.4381 55.8828C85.2475 55.8828 85.078 55.6921 85.0639 55.4943C85.0498 55.2472 85.0357 54.9929 85.0357 54.7457C85.0357 53.7923 85.0357 52.846 85.0357 51.8997C85.0357 50.8474 85.0357 49.8022 85.0427 48.757C85.0427 48.5592 85.078 48.3615 85.1274 48.1779C85.1486 48.1002 85.2475 48.0013 85.3251 47.9872C85.9676 47.8601 86.6172 47.9024 87.2597 47.9589C87.7257 48.0013 88.114 48.2061 88.4529 48.5239C89.0601 49.0889 89.399 49.8092 89.5614 50.6073C89.752 51.4971 89.745 52.394 89.5685 53.2839Z" fill="#EF4E28"/>
<path d="M168.25 51.7652C168.25 50.4587 168.25 49.1593 168.25 47.8528C168.25 47.4997 168.25 47.1536 168.257 46.8005C168.271 46.4262 168.455 46.2214 168.779 46.2073C168.878 46.2002 168.977 46.2002 169.083 46.2002C170.686 46.2002 172.295 46.2002 173.898 46.2002C174.046 46.2002 174.202 46.2143 174.343 46.2496C174.484 46.2849 174.625 46.3697 174.639 46.5392C174.661 46.8358 174.668 47.1395 174.668 47.4361C174.661 47.6762 174.428 47.881 174.159 47.8951C173.856 47.9093 173.559 47.9163 173.256 47.9163C172.451 47.9163 171.653 47.9093 170.848 47.9163C169.81 47.9234 169.754 47.9799 169.747 49.0251C169.747 49.4276 169.747 49.8302 169.761 50.2257C169.775 50.6424 169.973 50.833 170.438 50.8401C171.243 50.8542 172.041 50.8401 172.846 50.8542C173.093 50.8542 173.354 50.8613 173.587 50.9248C173.707 50.9531 173.856 51.1155 173.87 51.2285C173.905 51.5746 173.884 51.9206 173.87 52.2667C173.863 52.4362 173.7 52.5209 173.559 52.535C173.157 52.5633 172.761 52.5703 172.359 52.5774C171.66 52.5845 170.954 52.5845 170.255 52.5986C170.008 52.6057 169.789 52.8246 169.782 53.0859C169.775 53.8839 169.775 54.689 169.782 55.487C169.782 55.6777 169.98 55.8825 170.156 55.8896C170.608 55.9108 171.053 55.9178 171.505 55.9249C172.458 55.939 173.411 55.939 174.364 55.9532C174.618 55.9602 174.816 56.1721 174.83 56.4405C174.844 56.6876 174.837 56.9419 174.83 57.1891C174.823 57.4504 174.618 57.641 174.336 57.641C172.479 57.6481 170.629 57.6481 168.772 57.641C168.511 57.641 168.299 57.4292 168.285 57.1749C168.264 56.8218 168.25 56.4758 168.25 56.1227C168.25 54.6749 168.25 53.2201 168.25 51.7652Z" fill="#EF4F2A"/>
<path d="M133.498 51.9211C133.498 50.4239 133.498 48.9197 133.498 47.4225C133.498 47.1259 133.498 46.8222 133.555 46.5256C133.576 46.4126 133.745 46.3278 133.851 46.2431C133.887 46.2148 133.95 46.2148 134 46.2148C135.8 46.2148 137.6 46.2148 139.401 46.2219C139.669 46.2219 139.846 46.4196 139.853 46.7021C139.86 46.9493 139.853 47.2036 139.846 47.4507C139.839 47.6202 139.634 47.8603 139.479 47.8674C139.027 47.8886 138.582 47.9098 138.13 47.9168C137.233 47.931 136.33 47.938 135.433 47.9522C135.235 47.9592 135.038 48.1358 135.038 48.3194C135.03 49.0186 135.03 49.7177 135.03 50.4169C135.03 50.6076 135.221 50.7912 135.405 50.8053C135.652 50.8194 135.906 50.8406 136.153 50.8477C136.852 50.8547 137.551 50.8477 138.25 50.8547C138.448 50.8547 138.66 50.8618 138.843 50.9254C138.963 50.9677 139.097 51.109 139.126 51.2361C139.182 51.4762 139.182 51.7305 139.175 51.9776C139.175 52.3661 139.005 52.5567 138.66 52.5638C138.109 52.5779 137.558 52.5709 137.007 52.5779C134.706 52.6062 135.023 52.2954 134.995 54.5483C134.995 54.7955 134.995 55.0497 135.002 55.2969C135.016 55.7701 135.158 55.9184 135.638 55.9184C136.838 55.9254 138.038 55.9254 139.238 55.9325C139.436 55.9325 139.634 55.9678 139.825 56.0243C139.902 56.0455 139.994 56.1444 140.022 56.2291C140.156 56.6175 140.135 57.0201 140.036 57.4085C140.015 57.4862 139.909 57.5497 139.832 57.6062C139.796 57.6345 139.74 57.6345 139.69 57.6345C137.791 57.6416 135.892 57.6416 133.993 57.6416C133.717 57.6416 133.527 57.4509 133.527 57.1684C133.512 56.3209 133.512 55.4664 133.505 54.6189C133.491 53.722 133.498 52.8251 133.498 51.9211Z" fill="#EF4E29"/>
<path d="M68.1329 51.9341C68.1329 50.3804 68.1329 48.8267 68.1329 47.273C68.1329 47.0259 68.1399 46.7646 68.1964 46.5315C68.2247 46.4185 68.3729 46.2985 68.493 46.249C68.6271 46.1925 68.7895 46.2066 68.9378 46.2066C70.5405 46.2066 72.1432 46.2066 73.7459 46.2066C73.8942 46.2066 74.0566 46.2066 74.1907 46.2631C74.3249 46.3126 74.4732 46.3832 74.4661 46.5739C74.459 46.9199 74.452 47.266 74.4237 47.612C74.4167 47.6897 74.3108 47.7957 74.2331 47.8098C73.9931 47.8663 73.7459 47.9157 73.4988 47.9157C72.5457 47.9298 71.5925 47.9228 70.6393 47.9228C70.4416 47.9228 70.2369 47.944 70.0392 47.9581C69.8556 47.9722 69.6579 48.1629 69.6579 48.3465C69.6509 49.0457 69.6579 49.7448 69.6579 50.444C69.6579 50.4934 69.665 50.5499 69.6932 50.5852C69.7568 50.6629 69.8274 50.7689 69.9121 50.783C70.1592 50.8254 70.4063 50.8465 70.6605 50.8536C71.4654 50.8607 72.2632 50.8536 73.0681 50.8677C73.5765 50.8748 73.7459 51.0725 73.7459 51.6305C73.7459 51.8282 73.7106 52.0259 73.7036 52.2237C73.6895 52.4073 73.5412 52.5132 73.4141 52.5274C72.9128 52.5627 72.4115 52.5627 71.9102 52.5768C71.3101 52.5839 70.7099 52.5909 70.1098 52.598C69.8627 52.605 69.6438 52.824 69.6368 53.0782C69.6297 53.8268 69.6226 54.5825 69.6297 55.3311C69.6297 55.7124 69.8062 55.9031 70.1592 55.9102C70.8088 55.9243 71.4584 55.9243 72.115 55.9314C72.814 55.9384 73.52 55.9384 74.219 55.9525C74.4661 55.9596 74.685 56.1785 74.6991 56.4398C74.7132 56.687 74.7132 56.9413 74.692 57.1884C74.6779 57.4427 74.452 57.6545 74.1978 57.6545C72.3409 57.6545 70.4911 57.6545 68.6342 57.6475C68.3518 57.6475 68.1541 57.4568 68.1399 57.1955C68.1258 56.6446 68.1117 56.0938 68.1117 55.5429C68.1258 54.3353 68.1329 53.1347 68.1329 51.9341Z" fill="#EF4E29"/>
<path d="M55.346 45.925C56.4475 45.9038 57.2523 46.1792 57.9443 46.7159C58.8904 47.4504 58.8974 47.7117 57.9301 48.5592C57.8737 48.6086 57.7254 48.6157 57.6619 48.5733C57.4077 48.4109 57.1817 48.2131 56.9346 48.0507C56.2074 47.5846 55.4166 47.5775 54.6188 47.8035C54.1669 47.9306 53.821 48.2484 53.6233 48.6722C53.3126 49.336 53.3691 50.1764 54.2234 50.5931C54.6259 50.7909 55.0636 50.918 55.4872 51.0592C56.0097 51.2287 56.5463 51.3629 57.0617 51.5465C58.7492 52.1539 59.3634 53.3121 59.2152 54.9011C59.1022 56.1582 58.4314 57.048 57.3088 57.5847C56.6663 57.8955 55.9673 58.0085 55.2542 57.9237C53.7292 57.7401 52.4795 57.0974 51.724 55.6921C51.604 55.4661 51.6252 55.1906 51.8158 54.9999C51.957 54.8587 52.1123 54.7316 52.2606 54.6045C52.3665 54.5127 52.5571 54.5268 52.656 54.6256C52.8607 54.8446 53.0514 55.0776 53.2632 55.2895C54.181 56.1652 55.2825 56.3418 56.4757 56.0946C56.9276 56.0028 57.2806 55.6991 57.5206 55.2966C57.8737 54.7104 57.7183 53.9265 57.1464 53.5734C56.8499 53.3898 56.5251 53.2485 56.2003 53.1355C55.6849 52.9448 55.1483 52.8107 54.6329 52.62C54.1669 52.4434 53.7009 52.2527 53.2703 51.9985C52.4371 51.5041 51.9923 50.7485 51.9499 49.7739C51.9217 49.223 51.9217 48.6722 52.1265 48.1425C52.6348 46.8501 53.6374 46.1933 54.9577 45.9603C55.1554 45.9179 55.3601 45.925 55.346 45.925Z" fill="#EF4E28"/>
<path d="M128.867 45.9248C129.749 45.9248 130.554 46.179 131.232 46.737C132.213 47.5421 132.178 47.6974 131.211 48.559C131.154 48.6085 130.999 48.6296 130.935 48.5873C130.688 48.4248 130.469 48.213 130.215 48.0505C129.488 47.5915 128.69 47.5632 127.899 47.8034C127.412 47.9517 127.059 48.2977 126.833 48.7921C126.515 49.5124 126.819 50.2469 127.469 50.5788C127.822 50.7624 128.203 50.8896 128.584 51.0167C128.965 51.1438 129.361 51.2144 129.735 51.3416C130.159 51.4899 130.582 51.6523 130.985 51.843C132.312 52.4786 132.679 53.9546 132.503 54.9998C132.22 56.6312 131.211 57.5775 129.636 57.8741C127.991 58.1849 125.859 57.4504 124.969 55.6071C124.884 55.4306 124.899 55.1975 125.047 55.0563C125.23 54.8868 125.421 54.7244 125.626 54.5831C125.689 54.5407 125.845 54.5196 125.894 54.5619C126.042 54.6961 126.162 54.8585 126.29 55.0139C127.151 56.0309 128.273 56.3204 129.537 56.1298C130.229 56.0309 130.716 55.6354 130.956 54.9504C131.126 54.4701 130.9 53.8698 130.519 53.6156C130.229 53.4249 129.912 53.2695 129.587 53.1495C129.071 52.9588 128.535 52.8317 128.019 52.641C127.553 52.4715 127.073 52.295 126.65 52.0478C125.598 51.4334 125.153 50.4588 125.195 49.2723C125.259 47.3938 126.692 45.9884 128.577 45.9248C128.662 45.9248 128.768 45.9248 128.867 45.9248Z" fill="#EF4E28"/>
<path d="M110.185 45.9249C111.039 45.9602 112.077 46.3769 112.853 47.3444C112.981 47.5068 112.995 47.7046 112.846 47.8811C112.656 48.1142 112.458 48.3331 112.239 48.545C112.183 48.6015 112.027 48.6368 111.964 48.6015C111.752 48.4673 111.568 48.2978 111.364 48.1495C110.615 47.6057 109.775 47.5704 108.921 47.7893C108.257 47.9588 107.721 48.6651 107.699 49.3572C107.685 49.8445 107.904 50.247 108.321 50.4871C108.709 50.706 109.133 50.8685 109.556 51.0168C109.93 51.151 110.333 51.2145 110.714 51.3487C111.138 51.497 111.561 51.6524 111.971 51.8431C113.171 52.4292 113.623 53.5945 113.503 54.8516C113.355 56.37 112.402 57.4929 110.778 57.8601C109.175 58.2203 106.923 57.5635 105.955 55.6072C105.871 55.4377 105.906 55.2047 106.047 55.0564C106.153 54.9505 106.259 54.8445 106.379 54.7527C106.633 54.5479 106.845 54.5408 107.036 54.7457C107.24 54.9646 107.424 55.2118 107.65 55.4024C108.554 56.1934 109.627 56.3558 110.757 56.0945C111.441 55.9321 111.893 55.466 111.985 54.7315C112.042 54.3078 111.914 53.9194 111.561 53.6651C111.279 53.4674 110.961 53.2979 110.636 53.1778C110.072 52.966 109.486 52.8177 108.921 52.6199C108.497 52.4716 108.066 52.3092 107.685 52.0902C106.697 51.5182 106.203 50.6284 106.181 49.4843C106.153 47.4009 107.699 45.9108 110.185 45.9249Z" fill="#EF4D28"/>
<path d="M82.67 57.055C82.6277 56.8573 82.5712 56.6666 82.5218 56.4759C81.6604 53.3473 80.799 50.2117 79.9376 47.0831C79.8811 46.8924 79.8247 46.6947 79.7329 46.5252C79.6623 46.4052 79.5352 46.2639 79.4152 46.2498C79.1186 46.2145 78.815 46.2145 78.5255 46.2568C78.4055 46.271 78.2643 46.4052 78.2008 46.5182C78.0878 46.7441 78.0242 46.9843 77.9607 47.2244C77.5936 48.5733 77.2264 49.9221 76.8522 51.271C76.3368 53.1496 75.8073 55.0282 75.2919 56.9067C75.2495 57.048 75.2424 57.2033 75.2142 57.3446C75.193 57.4646 75.3413 57.62 75.4895 57.6341C76.4215 57.7118 76.5345 57.6836 76.7534 56.8008C76.824 56.5112 76.9228 56.2217 77.0075 55.9392C77.0711 55.7344 77.2123 55.579 77.4312 55.579C78.4267 55.5649 79.4293 55.5649 80.4248 55.5649C80.6366 55.5649 80.8061 55.6779 80.8767 55.8897C81.032 56.3629 81.1732 56.8432 81.3356 57.3163C81.4062 57.5141 81.5686 57.6341 81.7875 57.6553C81.8863 57.6624 81.9852 57.6694 82.0769 57.6694C82.5994 57.6624 82.7689 57.4858 82.67 57.055ZM79.9306 53.764C79.5775 53.7711 79.2316 53.764 78.8786 53.764V53.8064C78.582 53.7923 78.2784 53.7781 77.9819 53.764C77.8407 53.7569 77.6995 53.5945 77.7277 53.4674C78.0313 52.0973 78.3773 50.7484 78.8574 49.4278C78.8644 49.3995 78.928 49.3784 78.9492 49.3854C78.9986 49.3995 79.048 49.4278 79.0763 49.4631C79.1327 49.5408 79.2033 49.6255 79.2316 49.7173C79.5705 50.925 79.8953 52.1326 80.2271 53.3403C80.2695 53.5239 80.1071 53.7569 79.9306 53.764Z" fill="#EF4E28"/>
<path d="M105.447 56.8006C104.565 53.5732 103.675 50.3457 102.778 47.1183C102.708 46.8782 102.616 46.6451 102.51 46.4191C102.475 46.3414 102.369 46.2708 102.277 46.2496C102.136 46.2143 101.981 46.2143 101.825 46.2002C101.684 46.2143 101.529 46.1931 101.388 46.2426C101.26 46.2849 101.112 46.3768 101.049 46.4897C100.936 46.7087 100.858 46.9488 100.794 47.1889C99.9613 50.2257 99.1282 53.2624 98.3021 56.2992C98.2103 56.6382 98.1397 56.9772 98.055 57.3162C98.0268 57.4292 98.1821 57.6269 98.3021 57.634C98.5492 57.641 98.8034 57.6693 99.0435 57.6269C99.1705 57.6057 99.2976 57.4857 99.3965 57.3868C99.46 57.3232 99.4671 57.2032 99.5024 57.1114C100.053 55.3176 99.6295 55.5647 101.592 55.5435C102.044 55.5365 102.496 55.5435 102.941 55.5435C103.668 55.5365 103.654 55.6989 103.795 56.1509C103.915 56.5323 104.021 56.9207 104.148 57.295C104.219 57.4927 104.381 57.634 104.586 57.6481C104.833 57.6622 105.08 57.6481 105.327 57.6057C105.398 57.5916 105.497 57.4715 105.497 57.3939C105.518 57.1891 105.497 56.9913 105.447 56.8006ZM101.211 53.7921C101.063 53.7921 100.914 53.7639 100.766 53.7497C100.639 53.7356 100.505 53.552 100.54 53.4249C100.879 52.1819 101.225 50.9319 101.571 49.6889C101.613 49.5548 101.698 49.4276 101.769 49.3005C102.023 49.5195 102.101 49.8161 102.178 50.0986C102.355 50.72 102.524 51.3415 102.68 51.9701C103.209 54.0464 103.506 53.778 101.211 53.7921Z" fill="#EF4E28"/>
<path d="M159.438 51.4691C159.424 50.897 159.629 49.8659 159.989 48.8702C160.229 48.1992 160.589 47.599 161.083 47.0905C162.601 45.5085 164.938 45.5156 166.421 47.1187C166.725 47.4436 166.943 47.8532 167.191 48.2275C167.282 48.3687 167.219 48.6371 167.071 48.7783C166.887 48.9478 166.689 49.0961 166.492 49.2515C166.364 49.3504 166.174 49.3363 166.089 49.2374C165.8 48.8913 165.531 48.5312 165.207 48.2134C164.465 47.4789 163.004 47.4365 162.22 48.2981C161.952 48.5947 161.69 48.9125 161.528 49.2727C160.758 51.01 160.758 52.7685 161.5 54.527C161.599 54.753 161.733 54.9719 161.881 55.1697C162.855 56.5256 164.599 56.5115 165.609 55.2756C165.891 54.9296 166.103 54.52 166.343 54.1457C166.414 54.0397 166.626 54.0115 166.739 54.1033C166.965 54.301 167.184 54.4988 167.395 54.7177C167.452 54.7813 167.487 54.9154 167.459 54.9931C167.021 56.229 166.273 57.1824 165.016 57.6768C163.731 58.1782 162.559 57.931 161.486 57.1118C160.956 56.7093 160.582 56.1796 160.278 55.5934C159.692 54.4564 159.452 53.2346 159.438 51.4691Z" fill="#EF4E28"/>
<path d="M92.343 51.9487C92.343 50.4444 92.343 48.9472 92.343 47.443C92.343 47.1463 92.3501 46.8427 92.3924 46.5461C92.4136 46.4119 92.5266 46.2847 92.689 46.2565C92.7384 46.2494 92.7878 46.2212 92.8372 46.2212C94.6377 46.2212 96.4381 46.2212 98.2456 46.2282C98.5139 46.2282 98.7045 46.426 98.7115 46.7014C98.7186 46.9486 98.7186 47.2028 98.7045 47.45C98.6904 47.6972 98.4715 47.902 98.1961 47.902C97.3983 47.9161 96.5934 47.9161 95.7956 47.9232C95.3437 47.9303 94.8918 47.9232 94.447 47.9373C94.0799 47.9514 93.8751 48.1351 93.8681 48.474C93.8539 49.1238 93.8539 49.7735 93.861 50.4232C93.8681 50.8752 94.0375 51.0447 94.5035 51.0518C95.4073 51.0588 96.3039 51.0518 97.2077 51.0659C97.4054 51.0659 97.6031 51.1012 97.7937 51.1506C97.8714 51.1718 97.9561 51.2778 97.9773 51.3554C98.0832 51.7509 98.0832 52.1464 97.9702 52.5348C97.949 52.6125 97.8502 52.7185 97.7725 52.7326C97.5325 52.7749 97.2783 52.8032 97.0312 52.8032C96.1274 52.8173 95.2307 52.8173 94.327 52.8314C94.0587 52.8385 93.8751 53.0363 93.8751 53.3187C93.861 54.371 93.8681 55.4233 93.854 56.4756C93.854 56.7722 93.8328 57.0759 93.7975 57.3725C93.7904 57.4572 93.6916 57.5773 93.621 57.5985C93.2821 57.6903 92.929 57.7115 92.5901 57.5773C92.5125 57.549 92.4207 57.436 92.4066 57.3513C92.3713 57.1041 92.3571 56.8569 92.3571 56.6027C92.343 55.049 92.343 53.4953 92.343 51.9487Z" fill="#EF4F2A"/>
<path d="M152.279 57.6618C152.159 57.6547 152.004 57.6759 151.863 57.6264C151.735 57.577 151.601 57.4711 151.538 57.3581C151.439 57.1886 151.368 56.9908 151.319 56.8002C150.422 53.5657 149.533 50.3382 148.643 47.0966C148.594 46.906 148.586 46.7012 148.565 46.5034C148.551 46.3763 148.692 46.228 148.848 46.2209C149.045 46.2068 149.25 46.1997 149.448 46.2068C149.667 46.2139 149.822 46.348 149.907 46.5387C149.984 46.7223 150.034 46.9201 150.09 47.1108C150.705 49.3283 151.312 51.5529 151.926 53.7705C151.99 54.0106 152.053 54.2578 152.265 54.4202C152.293 54.4414 152.364 54.4626 152.371 54.4555C152.42 54.3708 152.477 54.286 152.498 54.1871C152.907 52.7394 153.303 51.2916 153.712 49.8509C154.023 48.7421 154.334 47.6334 154.651 46.5246C154.715 46.3057 154.906 46.2139 155.11 46.1997C155.357 46.1856 155.612 46.2068 155.852 46.2421C155.922 46.2562 156.007 46.3622 156.028 46.4399C156.056 46.5317 156.035 46.6376 156.007 46.7365C155.089 50.0698 154.178 53.3962 153.253 56.7295C153.197 56.9202 153.126 57.1109 153.07 57.3016C152.999 57.5276 152.823 57.5982 152.618 57.6335C152.519 57.6618 152.413 57.6547 152.279 57.6618Z" fill="#EF4E29"/>
<path d="M116.906 52.8102C116.906 51.4048 116.906 50.0065 116.906 48.6011C116.906 48.0644 116.68 47.9443 116.299 47.9302C115.748 47.909 115.197 47.9232 114.647 47.909C114.449 47.902 114.237 47.902 114.054 47.8384C113.934 47.796 113.792 47.6407 113.778 47.5206C113.743 47.1746 113.757 46.8285 113.785 46.4825C113.792 46.4048 113.898 46.32 113.976 46.2777C114.061 46.2282 114.167 46.207 114.258 46.207C116.511 46.207 118.763 46.207 121.015 46.2141C121.312 46.2141 121.481 46.3907 121.495 46.6661C121.502 46.8144 121.509 46.9627 121.509 47.1181C121.502 47.7749 121.382 47.8949 120.726 47.9161C120.676 47.9161 120.627 47.9161 120.577 47.9161C120.126 47.9161 119.674 47.9161 119.229 47.9232C118.551 47.9373 118.438 48.0503 118.424 48.7C118.417 49.152 118.417 49.604 118.417 50.0489C118.417 52.2029 118.417 54.3569 118.417 56.5109C118.417 56.758 118.41 57.0123 118.382 57.2594C118.375 57.3513 118.311 57.4501 118.248 57.5208C118.085 57.6973 117.358 57.7326 117.118 57.5631C117.047 57.5137 116.977 57.4078 116.963 57.3159C116.927 57.0688 116.913 56.8216 116.913 56.5673C116.913 55.3173 116.913 54.0673 116.906 52.8102C116.913 52.8102 116.913 52.8102 116.906 52.8102Z" fill="#EF502A"/>
<path d="M62.6185 52.7184C62.6185 51.4684 62.6185 50.2184 62.6185 48.9684C62.6185 48.8201 62.6115 48.6647 62.6044 48.5164C62.5903 48.1633 62.3926 47.9443 62.0678 47.9373C61.5171 47.9232 60.9664 47.9302 60.4157 47.9161C60.218 47.909 60.0062 47.902 59.8297 47.8384C59.7096 47.796 59.5684 47.6477 59.5543 47.5347C59.5119 47.2452 59.519 46.9415 59.519 46.6449C59.519 46.4189 59.6743 46.2565 59.872 46.2423C60.0697 46.2282 60.2674 46.207 60.4722 46.207C62.4208 46.207 64.3766 46.207 66.3253 46.207C66.523 46.207 66.7207 46.2282 66.9254 46.2423C67.1231 46.2565 67.2784 46.426 67.2784 46.652C67.2784 46.9486 67.2926 47.2522 67.2431 47.5418C67.2219 47.6619 67.0737 47.8243 66.9678 47.8455C66.6289 47.902 66.2758 47.909 65.9228 47.9232C65.471 47.9373 65.0262 47.9373 64.5743 47.9514C64.4331 47.9585 64.1648 48.1986 64.1577 48.3328C64.1436 48.6788 64.1224 49.0319 64.1224 49.385C64.1224 51.6873 64.1224 53.9896 64.1154 56.2919C64.1154 56.638 64.0942 56.9911 64.0589 57.3371C64.0447 57.4784 63.9388 57.6196 63.7694 57.6337C63.5223 57.6479 63.2681 57.6761 63.028 57.6337C62.908 57.6126 62.7456 57.4854 62.7174 57.3654C62.6468 57.1323 62.6256 56.8781 62.6256 56.6309C62.6185 55.3173 62.6256 54.0179 62.6185 52.7184Z" fill="#EF502B"/>
<path d="M158.316 51.8716C158.316 53.4677 158.316 55.0708 158.316 56.6669C158.316 56.9141 158.28 57.1613 158.231 57.4084C158.217 57.4861 158.111 57.5921 158.033 57.6062C157.786 57.6415 157.539 57.6485 157.292 57.6485C157.115 57.6485 156.875 57.4437 156.861 57.2954C156.84 57.0483 156.812 56.8011 156.812 56.5468C156.812 53.3971 156.812 50.2544 156.812 47.1046C156.812 46.9069 156.833 46.7091 156.875 46.5114C156.896 46.4266 156.974 46.3278 157.052 46.2854C157.384 46.13 157.737 46.1724 158.075 46.2571C158.153 46.2783 158.245 46.3984 158.259 46.4761C158.301 46.7727 158.323 47.0693 158.323 47.373C158.323 48.8772 158.323 50.3744 158.316 51.8716C158.323 51.8716 158.323 51.8716 158.316 51.8716Z" fill="#F05631"/>
<path d="M23.3411 32.111C23.094 32.7113 22.741 33.2622 22.4303 33.8342C22.4021 34.039 22.3032 34.2014 22.1267 34.3144C22.0985 34.3286 22.042 34.3286 22.0067 34.3144C21.9643 34.3003 21.9078 34.2721 21.8866 34.2367C21.8584 34.2014 21.8584 34.1379 21.8584 34.0955C21.9643 33.015 21.9078 31.9415 21.9078 30.861C21.6748 29.8793 21.2936 28.9612 20.757 28.0997C20.1568 27.1462 19.3872 26.3765 18.42 25.8115C17.5515 25.303 16.6407 24.8863 15.7017 24.5403C14.3884 24.053 13.0328 23.6787 11.6772 23.3326C10.5617 23.0501 9.45319 22.7465 8.3447 22.4216C7.57511 22.1956 6.83377 21.8778 6.13478 21.4894C4.58854 20.6349 3.8472 19.3142 3.82602 17.5557C3.79777 15.9455 4.40497 14.6319 5.61231 13.5867C6.62195 12.711 7.82223 12.2378 9.10723 11.92C10.131 11.6658 11.183 11.5881 12.235 11.5387C15.384 11.3833 18.427 11.9059 21.3854 12.937C21.6184 13.0218 21.8584 13.1065 22.0773 13.2195C22.2609 13.3113 22.3879 13.4737 22.3809 13.6997C22.2891 15.5077 22.5574 17.3015 22.5503 19.1094C22.5503 19.5543 22.5221 20.0063 22.4797 20.4512C22.4797 20.5007 22.3244 20.5501 22.2397 20.5784C22.2044 20.5925 22.1408 20.5572 22.1126 20.5219C22.042 20.4583 21.9714 20.3877 21.929 20.3029C21.8302 20.1264 21.7454 19.9428 21.6607 19.7662C20.404 17.0614 18.2717 15.3452 15.504 14.3706C13.6683 13.728 11.7902 13.5585 9.88388 14.0317C9.10017 14.2294 8.3447 14.4907 7.68102 14.9568C6.78434 15.5783 6.36778 16.4399 6.4525 17.5345C6.50193 18.1772 6.77022 18.7069 7.29976 19.0529C7.71632 19.3283 8.16819 19.5543 8.63418 19.7309C9.71443 20.1476 10.837 20.4018 11.9597 20.649C13.5271 20.995 15.0874 21.3481 16.6125 21.8496C17.7069 22.2097 18.773 22.6405 19.7968 23.1843C21.3077 23.9965 22.395 25.2041 23.1505 26.7296C24.0189 28.4951 24.0966 30.296 23.3411 32.111Z" fill="#00A44F"/>
</g>
<defs>
<clipPath id="clip0_96_396">
<rect width="175" height="58" fill="white"/>
</clipPath>
</defs>
</svg>
